<?xml version="1.0" encoding="utf-8"?>
<!-- Generator: Adobe Illustrator 23.1.0, SVG Export Plug-In . SVG Version: 6.00 Build 0)  -->
<svg version="1.1" id="Слой_1" xmlns="http://www.w3.org/2000/svg" xmlns:xlink="http://www.w3.org/1999/xlink" x="0px" y="0px"
	 viewBox="0 0 640 480" style="enable-background:new 0 0 640 480;" xml:space="preserve">
<style type="text/css">
	.st0{opacity:0.28;fill:#2C2763;}
	.st1{fill:#D9E3F5;}
	.st2{fill:#E0F2FB;}
	.st3{fill:#EDF7FA;}
	.st4{fill:#CACCE8;}
	.st5{fill:#1C2041;}
	.st6{fill:#044894;}
	.st7{fill:#A4B5D3;}
	.st8{fill:#B3C7DE;}
	.st9{fill:#FFFFFF;}
	.st10{fill:#C8D0E6;}
	.st11{fill:#E6F3FD;}
	.st12{fill:#EAF3FC;}
	.st13{fill:#E6F5FE;}
	.st14{fill:#C3C8DF;}
	.st15{fill:#3CACE3;}
	.st16{fill:#72C9E1;}
	.st17{fill:#52C2E7;}
	.st18{fill:#3682C4;}
	.st19{fill:#FFE500;}
	.st20{fill:#F7EC64;}
	.st21{fill:#E9435E;}
	.st22{fill:#ED6D9A;}
	.st23{fill:#5CB991;}
	.st24{fill:#7AC5B5;}
	.st25{fill:#6AC1B3;}
	.st26{fill:#375EA9;}
	.st27{fill:#CA72AC;}
	.st28{fill:#EC6590;}
	.st29{fill:#FFCD07;}
	.st30{opacity:0.34;}
	.st31{fill:#E83D69;}
	.st32{fill:#E868A3;}
	.st33{fill:#C52739;}
	.st34{fill:#EC659C;}
	.st35{fill:#E72A4E;}
	.st36{fill:#E6EAF7;}
	.st37{fill:#D0CFE5;}
	.st38{fill:#FFD900;}
	.st39{fill:#5FB130;}
	.st40{fill:#DDE4EF;}
	.st41{fill:#C7D4D5;}
	.st42{fill:#EDF4EF;}
	.st43{fill:#EBF6FD;}
	.st44{fill:#D9E3F0;}
	.st45{fill:#7D2F20;}
	.st46{fill:#AD421F;}
	.st47{fill:#93401F;}
	.st48{fill:#C36E1F;}
	.st49{fill:#AD571F;}
	.st50{fill:#CF731E;}
	.st51{fill:#C4651E;}
	.st52{fill:#E6781D;}
	.st53{fill:url(#SVGID_1_);}
	.st54{fill:url(#SVGID_2_);}
	.st55{fill:url(#SVGID_3_);}
	.st56{fill:#EB577C;}
	.st57{fill:#DAEFFC;}
	.st58{fill:#CAD1EB;}
	.st59{fill:#ABAED8;}
	.st60{fill:#FFF1BF;}
	.st61{fill:#F4E700;}
	.st62{fill:#FFD800;}
	.st63{fill:#FAB311;}
	.st64{fill:#FFDF00;}
	.st65{fill:#F9EF83;}
	.st66{fill:#FDC203;}
	.st67{opacity:0.2;fill:#FFFFFF;}
	.st68{opacity:0.53;fill:#FFFFFF;}
	.st69{opacity:0.3;fill:#3CACE3;}
	.st70{opacity:0.4;fill:#5EC4E2;}
	.st71{opacity:0.81;fill:url(#SVGID_4_);}
	.st72{opacity:0.3;fill:#284D9C;}
	.st73{fill:#E94447;}
	.st74{fill:#F18D90;}
	.st75{fill:#C52918;}
	.st76{fill:#FFCE06;}
	.st77{fill:#FDEB18;}
	.st78{fill:#F7A516;}
	.st79{fill:#FBBC0F;}
	.st80{fill:#65B981;}
	.st81{fill:#A0CE9D;}
	.st82{fill:#1BAB6D;}
	.st83{fill:none;stroke:#50B585;stroke-width:2;stroke-linecap:round;stroke-linejoin:round;stroke-miterlimit:10;}
	.st84{fill:#50B585;}
	.st85{fill:none;stroke:#6AC6DA;stroke-width:2;stroke-linecap:round;stroke-linejoin:round;stroke-miterlimit:10;}
	.st86{fill:none;stroke:#EA5392;stroke-width:2;stroke-linecap:round;stroke-linejoin:round;stroke-miterlimit:10;}
	.st87{fill:none;stroke:#FFD700;stroke-width:2;stroke-linecap:round;stroke-linejoin:round;stroke-miterlimit:10;}
	.st88{opacity:0.28;fill:#FFFFFF;}
	.st89{opacity:0.81;fill:url(#SVGID_5_);}
	.st90{fill:#6AC6DA;}
	.st91{fill:#EA5392;}
	.st92{fill:#FFD700;}
	.st93{opacity:0.81;fill:url(#SVGID_6_);}
</style>
<g>
	<g>
		<g>
			<path class="st0" d="M459,450.4H186.8c-7.5,0-13.6-6.1-13.6-13.6V276.3c0-7.5,6.1-13.6,13.6-13.6H459c7.5,0,13.6,6.1,13.6,13.6
				v160.5C472.7,444.3,466.6,450.4,459,450.4z"/>
			<path class="st1" d="M462.5,445.2H183.3c-7.5,0-13.6-6.1-13.6-13.6V266.8c0-7.5,6.1-13.6,13.6-13.6h279.2
				c7.5,0,13.6,6.1,13.6,13.6v164.8C476.1,439.1,470,445.2,462.5,445.2z"/>
			<path class="st2" d="M458.4,442.8H187.4c-9.8,0-17.7-7.9-17.7-17.7v2.4c0,9.8,7.9,17.7,17.7,17.7h271.1c9.8,0,17.7-7.9,17.7-17.7
				v-2.4C476.1,434.9,468.2,442.8,458.4,442.8z"/>
			<g>
				<path class="st3" d="M446.6,386.9H199.2c-2.7,0-4.8-2.2-4.8-4.8V278.6c0-2.7,2.2-4.8,4.8-4.8h247.3c2.7,0,4.8,2.2,4.8,4.8v103.5
					C451.4,384.7,449.2,386.9,446.6,386.9z"/>
				<path class="st4" d="M446.6,385.1H199.2c-2.7,0-4.8-2.2-4.8-4.8V278.6c0-2.7,2.2-4.8,4.8-4.8h247.3c2.7,0,4.8,2.2,4.8,4.8v101.7
					C451.4,383,449.2,385.1,446.6,385.1z"/>
			</g>
		</g>
		<path class="st5" d="M307.1,360.6h12.4c0.7,0,1.3-0.6,1.3-1.3v-11.4c0-0.7-0.6-1.3-1.3-1.3h-12.4c-0.7,0-1.3,0.6-1.3,1.3v11.4
			C305.8,360,306.4,360.6,307.1,360.6z M286.7,360.6h12.4c0.7,0,1.3-0.6,1.3-1.3v-11.4c0-0.7-0.6-1.3-1.3-1.3h-12.4
			c-0.7,0-1.3,0.6-1.3,1.3v11.4C285.5,360,286,360.6,286.7,360.6z M205.2,306.7h12.4c0.7,0,1.3-0.6,1.3-1.3V294
			c0-0.7-0.6-1.3-1.3-1.3h-12.4c-0.7,0-1.3,0.6-1.3,1.3v11.4C203.9,306.1,204.5,306.7,205.2,306.7z M286.7,323.7h12.4
			c0.7,0,1.3-0.6,1.3-1.3V311c0-0.7-0.6-1.3-1.3-1.3h-12.4c-0.7,0-1.3,0.6-1.3,1.3v11.4C285.5,323.1,286,323.7,286.7,323.7z
			 M286.7,342.2h12.4c0.7,0,1.3-0.6,1.3-1.3v-11.4c0-0.7-0.6-1.3-1.3-1.3h-12.4c-0.7,0-1.3,0.6-1.3,1.3v11.4
			C285.5,341.6,286,342.2,286.7,342.2z M286.7,290.2h12.4c0.7,0,1.3-0.6,1.3-1.3v-6c0-0.7-0.6-1.3-1.3-1.3h-12.4
			c-0.7,0-1.3,0.6-1.3,1.3v6C285.5,289.6,286,290.2,286.7,290.2z M286.7,306.7h12.4c0.7,0,1.3-0.6,1.3-1.3V294
			c0-0.7-0.6-1.3-1.3-1.3h-12.4c-0.7,0-1.3,0.6-1.3,1.3v11.4C285.5,306.1,286,306.7,286.7,306.7z M205.2,290.2h12.4
			c0.7,0,1.3-0.6,1.3-1.3v-6c0-0.7-0.6-1.3-1.3-1.3h-12.4c-0.7,0-1.3,0.6-1.3,1.3v6C203.9,289.6,204.5,290.2,205.2,290.2z
			 M238,309.7h-32.8c-0.7,0-1.3,0.6-1.3,1.3v11.4c0,0.7,0.6,1.3,1.3,1.3H238c0.7,0,1.3-0.6,1.3-1.3V311
			C239.3,310.3,238.7,309.7,238,309.7z M238,328.1h-12.4c-0.7,0-1.3,0.6-1.3,1.3v11.4c0,0.7,0.6,1.3,1.3,1.3H238
			c0.7,0,1.3-0.6,1.3-1.3v-11.4C239.3,328.7,238.7,328.1,238,328.1z M217.6,346.6h-12.4c-0.7,0-1.3,0.6-1.3,1.3v11.4
			c0,0.7,0.6,1.3,1.3,1.3h12.4c0.7,0,1.3-0.6,1.3-1.3v-11.4C218.9,347.2,218.3,346.6,217.6,346.6z M238,292.7h-12.4
			c-0.7,0-1.3,0.6-1.3,1.3v11.4c0,0.7,0.6,1.3,1.3,1.3H238c0.7,0,1.3-0.6,1.3-1.3V294C239.3,293.3,238.7,292.7,238,292.7z
			 M238,346.6h-12.4c-0.7,0-1.3,0.6-1.3,1.3v11.4c0,0.7,0.6,1.3,1.3,1.3H238c0.7,0,1.3-0.6,1.3-1.3v-11.4
			C239.3,347.2,238.7,346.6,238,346.6z M217.6,328.1h-12.4c-0.7,0-1.3,0.6-1.3,1.3v11.4c0,0.7,0.6,1.3,1.3,1.3h12.4
			c0.7,0,1.3-0.6,1.3-1.3v-11.4C218.9,328.7,218.3,328.1,217.6,328.1z M238,365.1h-12.4c-0.7,0-1.3,0.6-1.3,1.3v11.4
			c0,0.7,0.6,1.3,1.3,1.3H238c0.7,0,1.3-0.6,1.3-1.3v-11.4C239.3,365.7,238.7,365.1,238,365.1z M347.9,342.2h12.4
			c0.7,0,1.3-0.6,1.3-1.3v-11.4c0-0.7-0.6-1.3-1.3-1.3h-12.4c-0.7,0-1.3,0.6-1.3,1.3v11.4C346.6,341.6,347.2,342.2,347.9,342.2z
			 M307.1,342.2h12.4c0.7,0,1.3-0.6,1.3-1.3v-11.4c0-0.7-0.6-1.3-1.3-1.3h-12.4c-0.7,0-1.3,0.6-1.3,1.3v11.4
			C305.8,341.6,306.4,342.2,307.1,342.2z M347.9,323.7h12.4c0.7,0,1.3-0.6,1.3-1.3V311c0-0.7-0.6-1.3-1.3-1.3h-12.4
			c-0.7,0-1.3,0.6-1.3,1.3v11.4C346.6,323.1,347.2,323.7,347.9,323.7z M327.5,290.2H340c0.7,0,1.3-0.6,1.3-1.3v-6
			c0-0.7-0.6-1.3-1.3-1.3h-12.4c-0.7,0-1.3,0.6-1.3,1.3v6C326.2,289.6,326.8,290.2,327.5,290.2z M347.9,360.6h12.4
			c0.7,0,1.3-0.6,1.3-1.3v-11.4c0-0.7-0.6-1.3-1.3-1.3h-12.4c-0.7,0-1.3,0.6-1.3,1.3v11.4C346.6,360,347.2,360.6,347.9,360.6z
			 M409.1,290.2h12.4c0.7,0,1.3-0.6,1.3-1.3v-6c0-0.7-0.6-1.3-1.3-1.3h-12.4c-0.7,0-1.3,0.6-1.3,1.3v6
			C407.8,289.6,408.4,290.2,409.1,290.2z M347.9,290.2h12.4c0.7,0,1.3-0.6,1.3-1.3v-6c0-0.7-0.6-1.3-1.3-1.3h-12.4
			c-0.7,0-1.3,0.6-1.3,1.3v6C346.6,289.6,347.2,290.2,347.9,290.2z M347.9,306.7h12.4c0.7,0,1.3-0.6,1.3-1.3V294
			c0-0.7-0.6-1.3-1.3-1.3h-12.4c-0.7,0-1.3,0.6-1.3,1.3v11.4C346.6,306.1,347.2,306.7,347.9,306.7z M238,281.6h-12.4
			c-0.7,0-1.3,0.6-1.3,1.3v6c0,0.7,0.6,1.3,1.3,1.3H238c0.7,0,1.3-0.6,1.3-1.3v-6C239.3,282.2,238.7,281.6,238,281.6z M307.1,306.7
			h12.4c0.7,0,1.3-0.6,1.3-1.3V294c0-0.7-0.6-1.3-1.3-1.3h-12.4c-0.7,0-1.3,0.6-1.3,1.3v11.4C305.8,306.1,306.4,306.7,307.1,306.7z
			 M327.5,306.7H340c0.7,0,1.3-0.6,1.3-1.3V294c0-0.7-0.6-1.3-1.3-1.3h-12.4c-0.7,0-1.3,0.6-1.3,1.3v11.4
			C326.2,306.1,326.8,306.7,327.5,306.7z M307.1,323.7h12.4c0.7,0,1.3-0.6,1.3-1.3V311c0-0.7-0.6-1.3-1.3-1.3h-12.4
			c-0.7,0-1.3,0.6-1.3,1.3v11.4C305.8,323.1,306.4,323.7,307.1,323.7z M307.1,290.2h12.4c0.7,0,1.3-0.6,1.3-1.3v-6
			c0-0.7-0.6-1.3-1.3-1.3h-12.4c-0.7,0-1.3,0.6-1.3,1.3v6C305.8,289.6,306.4,290.2,307.1,290.2z M327.5,360.6H340
			c0.7,0,1.3-0.6,1.3-1.3v-11.4c0-0.7-0.6-1.3-1.3-1.3h-12.4c-0.7,0-1.3,0.6-1.3,1.3v11.4C326.2,360,326.8,360.6,327.5,360.6z
			 M327.5,323.7H340c0.7,0,1.3-0.6,1.3-1.3V311c0-0.7-0.6-1.3-1.3-1.3h-12.4c-0.7,0-1.3,0.6-1.3,1.3v11.4
			C326.2,323.1,326.8,323.7,327.5,323.7z M327.5,342.2H340c0.7,0,1.3-0.6,1.3-1.3v-11.4c0-0.7-0.6-1.3-1.3-1.3h-12.4
			c-0.7,0-1.3,0.6-1.3,1.3v11.4C326.2,341.6,326.8,342.2,327.5,342.2z M217.6,365.1h-12.4c-0.7,0-1.3,0.6-1.3,1.3v11.4
			c0,0.7,0.6,1.3,1.3,1.3h12.4c0.7,0,1.3-0.6,1.3-1.3v-11.4C218.9,365.7,218.3,365.1,217.6,365.1z M401.1,328.1h-12.4
			c-0.7,0-1.3,0.6-1.3,1.3v11.4c0,0.7,0.6,1.3,1.3,1.3h12.4c0.7,0,1.3-0.6,1.3-1.3v-11.4C402.4,328.7,401.8,328.1,401.1,328.1z
			 M401.1,309.7h-12.4c-0.7,0-1.3,0.6-1.3,1.3v11.4c0,0.7,0.6,1.3,1.3,1.3h12.4c0.7,0,1.3-0.6,1.3-1.3V311
			C402.4,310.3,401.8,309.7,401.1,309.7z M421.5,365.1h-12.4c-0.7,0-1.3,0.6-1.3,1.3v11.4c0,0.7,0.6,1.3,1.3,1.3h12.4
			c0.7,0,1.3-0.6,1.3-1.3v-11.4C422.8,365.7,422.2,365.1,421.5,365.1z M401.1,281.6h-12.4c-0.7,0-1.3,0.6-1.3,1.3v6
			c0,0.7,0.6,1.3,1.3,1.3h12.4c0.7,0,1.3-0.6,1.3-1.3v-6C402.4,282.2,401.8,281.6,401.1,281.6z M401.1,292.7h-12.4
			c-0.7,0-1.3,0.6-1.3,1.3v11.4c0,0.7,0.6,1.3,1.3,1.3h12.4c0.7,0,1.3-0.6,1.3-1.3V294C402.4,293.3,401.8,292.7,401.1,292.7z
			 M380.7,292.7h-12.4c-0.7,0-1.3,0.6-1.3,1.3v11.4c0,0.7,0.6,1.3,1.3,1.3h12.4c0.7,0,1.3-0.6,1.3-1.3V294
			C382,293.3,381.5,292.7,380.7,292.7z M380.7,281.6h-12.4c-0.7,0-1.3,0.6-1.3,1.3v6c0,0.7,0.6,1.3,1.3,1.3h12.4
			c0.7,0,1.3-0.6,1.3-1.3v-6C382,282.2,381.5,281.6,380.7,281.6z M401.1,365.1h-12.4c-0.7,0-1.3,0.6-1.3,1.3v11.4
			c0,0.7,0.6,1.3,1.3,1.3h12.4c0.7,0,1.3-0.6,1.3-1.3v-11.4C402.4,365.7,401.8,365.1,401.1,365.1z M401.1,346.6h-12.4
			c-0.7,0-1.3,0.6-1.3,1.3v11.4c0,0.7,0.6,1.3,1.3,1.3h12.4c0.7,0,1.3-0.6,1.3-1.3v-11.4C402.4,347.2,401.8,346.6,401.1,346.6z
			 M441.9,292.7h-32.8c-0.7,0-1.3,0.6-1.3,1.3v11.4c0,0.7,0.6,1.3,1.3,1.3h32.8c0.7,0,1.3-0.6,1.3-1.3V294
			C443.2,293.3,442.6,292.7,441.9,292.7z M441.9,281.6h-12.4c-0.7,0-1.3,0.6-1.3,1.3v6c0,0.7,0.6,1.3,1.3,1.3h12.4
			c0.7,0,1.3-0.6,1.3-1.3v-6C443.2,282.2,442.6,281.6,441.9,281.6z M441.9,309.7h-32.8c-0.7,0-1.3,0.6-1.3,1.3v11.4
			c0,0.7,0.6,1.3,1.3,1.3h17.8c0.7,0,1.3,0.6,1.3,1.3v15.9c0,0.7,0.6,1.3,1.3,1.3h12.4c0.7,0,1.3-0.6,1.3-1.3V311
			C443.2,310.3,442.6,309.7,441.9,309.7z M258.4,365.1H246c-0.7,0-1.3,0.6-1.3,1.3v11.4c0,0.7,0.6,1.3,1.3,1.3h12.4
			c0.7,0,1.3-0.6,1.3-1.3v-11.4C259.7,365.7,259.1,365.1,258.4,365.1z M421.5,346.6h-12.4c-0.7,0-1.3,0.6-1.3,1.3v11.4
			c0,0.7,0.6,1.3,1.3,1.3h12.4c0.7,0,1.3-0.6,1.3-1.3v-11.4C422.8,347.2,422.2,346.6,421.5,346.6z M421.5,328.1h-12.4
			c-0.7,0-1.3,0.6-1.3,1.3v11.4c0,0.7,0.6,1.3,1.3,1.3h12.4c0.7,0,1.3-0.6,1.3-1.3v-11.4C422.8,328.7,422.2,328.1,421.5,328.1z
			 M441.9,365.1h-12.4c-0.7,0-1.3,0.6-1.3,1.3v11.4c0,0.7,0.6,1.3,1.3,1.3h12.4c0.7,0,1.3-0.6,1.3-1.3v-11.4
			C443.2,365.7,442.6,365.1,441.9,365.1z M441.9,346.6h-12.4c-0.7,0-1.3,0.6-1.3,1.3v11.4c0,0.7,0.6,1.3,1.3,1.3h12.4
			c0.7,0,1.3-0.6,1.3-1.3v-11.4C443.2,347.2,442.6,346.6,441.9,346.6z M278.8,346.6h-12.4c-0.7,0-1.3,0.6-1.3,1.3v11.4
			c0,0.7,0.6,1.3,1.3,1.3h12.4c0.7,0,1.3-0.6,1.3-1.3v-11.4C280.1,347.2,279.5,346.6,278.8,346.6z M258.4,292.7H246
			c-0.7,0-1.3,0.6-1.3,1.3v11.4c0,0.7,0.6,1.3,1.3,1.3h12.4c0.7,0,1.3-0.6,1.3-1.3V294C259.7,293.3,259.1,292.7,258.4,292.7z
			 M278.8,365.1h-12.4c-0.7,0-1.3,0.6-1.3,1.3v11.4c0,0.7,0.6,1.3,1.3,1.3h12.4c0.7,0,1.3-0.6,1.3-1.3v-11.4
			C280.1,365.7,279.5,365.1,278.8,365.1z M258.4,281.6H246c-0.7,0-1.3,0.6-1.3,1.3v6c0,0.7,0.6,1.3,1.3,1.3h12.4
			c0.7,0,1.3-0.6,1.3-1.3v-6C259.7,282.2,259.1,281.6,258.4,281.6z M380.7,309.7h-12.4c-0.7,0-1.3,0.6-1.3,1.3v11.4
			c0,0.7,0.6,1.3,1.3,1.3h12.4c0.7,0,1.3-0.6,1.3-1.3V311C382,310.3,381.5,309.7,380.7,309.7z M258.4,346.6H246
			c-0.7,0-1.3,0.6-1.3,1.3v11.4c0,0.7,0.6,1.3,1.3,1.3h12.4c0.7,0,1.3-0.6,1.3-1.3v-11.4C259.7,347.2,259.1,346.6,258.4,346.6z
			 M258.4,328.1H246c-0.7,0-1.3,0.6-1.3,1.3v11.4c0,0.7,0.6,1.3,1.3,1.3h12.4c0.7,0,1.3-0.6,1.3-1.3v-11.4
			C259.7,328.7,259.1,328.1,258.4,328.1z M258.4,309.7H246c-0.7,0-1.3,0.6-1.3,1.3v11.4c0,0.7,0.6,1.3,1.3,1.3h12.4
			c0.7,0,1.3-0.6,1.3-1.3V311C259.7,310.3,259.1,309.7,258.4,309.7z M278.8,328.1h-12.4c-0.7,0-1.3,0.6-1.3,1.3v11.4
			c0,0.7,0.6,1.3,1.3,1.3h12.4c0.7,0,1.3-0.6,1.3-1.3v-11.4C280.1,328.7,279.5,328.1,278.8,328.1z M380.7,328.1h-12.4
			c-0.7,0-1.3,0.6-1.3,1.3v11.4c0,0.7,0.6,1.3,1.3,1.3h12.4c0.7,0,1.3-0.6,1.3-1.3v-11.4C382,328.7,381.5,328.1,380.7,328.1z
			 M380.7,365.1h-94c-0.7,0-1.3,0.6-1.3,1.3v11.4c0,0.7,0.6,1.3,1.3,1.3h94c0.7,0,1.3-0.6,1.3-1.3v-11.4
			C382,365.7,381.5,365.1,380.7,365.1z M380.7,346.6h-12.4c-0.7,0-1.3,0.6-1.3,1.3v11.4c0,0.7,0.6,1.3,1.3,1.3h12.4
			c0.7,0,1.3-0.6,1.3-1.3v-11.4C382,347.2,381.5,346.6,380.7,346.6z M278.8,309.7h-12.4c-0.7,0-1.3,0.6-1.3,1.3v11.4
			c0,0.7,0.6,1.3,1.3,1.3h12.4c0.7,0,1.3-0.6,1.3-1.3V311C280.1,310.3,279.5,309.7,278.8,309.7z M278.8,292.7h-12.4
			c-0.7,0-1.3,0.6-1.3,1.3v11.4c0,0.7,0.6,1.3,1.3,1.3h12.4c0.7,0,1.3-0.6,1.3-1.3V294C280.1,293.3,279.5,292.7,278.8,292.7z
			 M278.8,281.6h-12.4c-0.7,0-1.3,0.6-1.3,1.3v6c0,0.7,0.6,1.3,1.3,1.3h12.4c0.7,0,1.3-0.6,1.3-1.3v-6
			C280.1,282.2,279.5,281.6,278.8,281.6z"/>
		<g>
			<path class="st6" d="M205.2,281.9h12.4c0.7,0,1.3,0.6,1.3,1.3v-0.2c0-0.7-0.6-1.3-1.3-1.3h-12.4c-0.7,0-1.3,0.6-1.3,1.3v0.2
				C203.9,282.4,204.5,281.9,205.2,281.9z"/>
			<path class="st6" d="M205.2,293h12.4c0.7,0,1.3,0.6,1.3,1.3V294c0-0.7-0.6-1.3-1.3-1.3h-12.4c-0.7,0-1.3,0.6-1.3,1.3v0.2
				C203.9,293.5,204.5,293,205.2,293z"/>
			<path class="st6" d="M286.7,346.8h12.4c0.7,0,1.3,0.6,1.3,1.3v-0.2c0-0.7-0.6-1.3-1.3-1.3h-12.4c-0.7,0-1.3,0.6-1.3,1.3v0.2
				C285.5,347.4,286,346.8,286.7,346.8z"/>
			<path class="st6" d="M286.7,309.9h12.4c0.7,0,1.3,0.6,1.3,1.3V311c0-0.7-0.6-1.3-1.3-1.3h-12.4c-0.7,0-1.3,0.6-1.3,1.3v0.2
				C285.5,310.5,286,309.9,286.7,309.9z"/>
			<path class="st6" d="M286.7,293h12.4c0.7,0,1.3,0.6,1.3,1.3V294c0-0.7-0.6-1.3-1.3-1.3h-12.4c-0.7,0-1.3,0.6-1.3,1.3v0.2
				C285.5,293.5,286,293,286.7,293z"/>
			<path class="st6" d="M286.7,328.4h12.4c0.7,0,1.3,0.6,1.3,1.3v-0.2c0-0.7-0.6-1.3-1.3-1.3h-12.4c-0.7,0-1.3,0.6-1.3,1.3v0.2
				C285.5,329,286,328.4,286.7,328.4z"/>
			<path class="st6" d="M217.6,365.1h-12.4c-0.7,0-1.3,0.6-1.3,1.3v0.2c0-0.7,0.6-1.3,1.3-1.3h12.4c0.7,0,1.3,0.6,1.3,1.3v-0.2
				C218.9,365.7,218.3,365.1,217.6,365.1z"/>
			<path class="st6" d="M238,328.1h-12.4c-0.7,0-1.3,0.6-1.3,1.3v0.2c0-0.7,0.6-1.3,1.3-1.3H238c0.7,0,1.3,0.6,1.3,1.3v-0.2
				C239.3,328.7,238.7,328.1,238,328.1z"/>
			<path class="st6" d="M217.6,346.6h-12.4c-0.7,0-1.3,0.6-1.3,1.3v0.2c0-0.7,0.6-1.3,1.3-1.3h12.4c0.7,0,1.3,0.6,1.3,1.3v-0.2
				C218.9,347.2,218.3,346.6,217.6,346.6z"/>
			<path class="st6" d="M286.7,281.9h12.4c0.7,0,1.3,0.6,1.3,1.3v-0.2c0-0.7-0.6-1.3-1.3-1.3h-12.4c-0.7,0-1.3,0.6-1.3,1.3v0.2
				C285.5,282.4,286,281.9,286.7,281.9z"/>
			<path class="st6" d="M238,292.7h-12.4c-0.7,0-1.3,0.6-1.3,1.3v0.2c0-0.7,0.6-1.3,1.3-1.3H238c0.7,0,1.3,0.6,1.3,1.3V294
				C239.3,293.3,238.7,292.7,238,292.7z"/>
			<path class="st6" d="M238,309.7h-32.8c-0.7,0-1.3,0.6-1.3,1.3v0.2c0-0.7,0.6-1.3,1.3-1.3H238c0.7,0,1.3,0.6,1.3,1.3V311
				C239.3,310.3,238.7,309.7,238,309.7z"/>
			<path class="st6" d="M217.6,328.1h-12.4c-0.7,0-1.3,0.6-1.3,1.3v0.2c0-0.7,0.6-1.3,1.3-1.3h12.4c0.7,0,1.3,0.6,1.3,1.3v-0.2
				C218.9,328.7,218.3,328.1,217.6,328.1z"/>
			<path class="st6" d="M238,365.1h-12.4c-0.7,0-1.3,0.6-1.3,1.3v0.2c0-0.7,0.6-1.3,1.3-1.3H238c0.7,0,1.3,0.6,1.3,1.3v-0.2
				C239.3,365.7,238.7,365.1,238,365.1z"/>
			<path class="st6" d="M238,346.6h-12.4c-0.7,0-1.3,0.6-1.3,1.3v0.2c0-0.7,0.6-1.3,1.3-1.3H238c0.7,0,1.3,0.6,1.3,1.3v-0.2
				C239.3,347.2,238.7,346.6,238,346.6z"/>
			<path class="st6" d="M347.9,346.8h12.4c0.7,0,1.3,0.6,1.3,1.3v-0.2c0-0.7-0.6-1.3-1.3-1.3h-12.4c-0.7,0-1.3,0.6-1.3,1.3v0.2
				C346.6,347.4,347.2,346.8,347.9,346.8z"/>
			<path class="st6" d="M347.9,309.9h12.4c0.7,0,1.3,0.6,1.3,1.3V311c0-0.7-0.6-1.3-1.3-1.3h-12.4c-0.7,0-1.3,0.6-1.3,1.3v0.2
				C346.6,310.5,347.2,309.9,347.9,309.9z"/>
			<path class="st6" d="M347.9,328.4h12.4c0.7,0,1.3,0.6,1.3,1.3v-0.2c0-0.7-0.6-1.3-1.3-1.3h-12.4c-0.7,0-1.3,0.6-1.3,1.3v0.2
				C346.6,329,347.2,328.4,347.9,328.4z"/>
			<path class="st6" d="M238,281.6h-12.4c-0.7,0-1.3,0.6-1.3,1.3v0.2c0-0.7,0.6-1.3,1.3-1.3H238c0.7,0,1.3,0.6,1.3,1.3v-0.2
				C239.3,282.2,238.7,281.6,238,281.6z"/>
			<path class="st6" d="M327.5,281.9H340c0.7,0,1.3,0.6,1.3,1.3v-0.2c0-0.7-0.6-1.3-1.3-1.3h-12.4c-0.7,0-1.3,0.6-1.3,1.3v0.2
				C326.2,282.4,326.8,281.9,327.5,281.9z"/>
			<path class="st6" d="M327.5,293H340c0.7,0,1.3,0.6,1.3,1.3V294c0-0.7-0.6-1.3-1.3-1.3h-12.4c-0.7,0-1.3,0.6-1.3,1.3v0.2
				C326.2,293.5,326.8,293,327.5,293z"/>
			<path class="st6" d="M409.1,281.9h12.4c0.7,0,1.3,0.6,1.3,1.3v-0.2c0-0.7-0.6-1.3-1.3-1.3h-12.4c-0.7,0-1.3,0.6-1.3,1.3v0.2
				C407.8,282.4,408.4,281.9,409.1,281.9z"/>
			<path class="st6" d="M347.9,293h12.4c0.7,0,1.3,0.6,1.3,1.3V294c0-0.7-0.6-1.3-1.3-1.3h-12.4c-0.7,0-1.3,0.6-1.3,1.3v0.2
				C346.6,293.5,347.2,293,347.9,293z"/>
			<path class="st6" d="M347.9,281.9h12.4c0.7,0,1.3,0.6,1.3,1.3v-0.2c0-0.7-0.6-1.3-1.3-1.3h-12.4c-0.7,0-1.3,0.6-1.3,1.3v0.2
				C346.6,282.4,347.2,281.9,347.9,281.9z"/>
			<path class="st6" d="M327.5,309.9H340c0.7,0,1.3,0.6,1.3,1.3V311c0-0.7-0.6-1.3-1.3-1.3h-12.4c-0.7,0-1.3,0.6-1.3,1.3v0.2
				C326.2,310.5,326.8,309.9,327.5,309.9z"/>
			<path class="st6" d="M307.1,293h12.4c0.7,0,1.3,0.6,1.3,1.3V294c0-0.7-0.6-1.3-1.3-1.3h-12.4c-0.7,0-1.3,0.6-1.3,1.3v0.2
				C305.8,293.5,306.4,293,307.1,293z"/>
			<path class="st6" d="M307.1,309.9h12.4c0.7,0,1.3,0.6,1.3,1.3V311c0-0.7-0.6-1.3-1.3-1.3h-12.4c-0.7,0-1.3,0.6-1.3,1.3v0.2
				C305.8,310.5,306.4,309.9,307.1,309.9z"/>
			<path class="st6" d="M307.1,328.4h12.4c0.7,0,1.3,0.6,1.3,1.3v-0.2c0-0.7-0.6-1.3-1.3-1.3h-12.4c-0.7,0-1.3,0.6-1.3,1.3v0.2
				C305.8,329,306.4,328.4,307.1,328.4z"/>
			<path class="st6" d="M327.5,328.4H340c0.7,0,1.3,0.6,1.3,1.3v-0.2c0-0.7-0.6-1.3-1.3-1.3h-12.4c-0.7,0-1.3,0.6-1.3,1.3v0.2
				C326.2,329,326.8,328.4,327.5,328.4z"/>
			<path class="st6" d="M307.1,346.8h12.4c0.7,0,1.3,0.6,1.3,1.3v-0.2c0-0.7-0.6-1.3-1.3-1.3h-12.4c-0.7,0-1.3,0.6-1.3,1.3v0.2
				C305.8,347.4,306.4,346.8,307.1,346.8z"/>
			<path class="st6" d="M307.1,281.9h12.4c0.7,0,1.3,0.6,1.3,1.3v-0.2c0-0.7-0.6-1.3-1.3-1.3h-12.4c-0.7,0-1.3,0.6-1.3,1.3v0.2
				C305.8,282.4,306.4,281.9,307.1,281.9z"/>
			<path class="st6" d="M327.5,346.8H340c0.7,0,1.3,0.6,1.3,1.3v-0.2c0-0.7-0.6-1.3-1.3-1.3h-12.4c-0.7,0-1.3,0.6-1.3,1.3v0.2
				C326.2,347.4,326.8,346.8,327.5,346.8z"/>
			<path class="st6" d="M380.7,365.1h-94c-0.7,0-1.3,0.6-1.3,1.3v0.2c0-0.7,0.6-1.3,1.3-1.3h94c0.7,0,1.3,0.6,1.3,1.3v-0.2
				C382,365.7,381.5,365.1,380.7,365.1z"/>
			<path class="st6" d="M421.5,365.1h-12.4c-0.7,0-1.3,0.6-1.3,1.3v0.2c0-0.7,0.6-1.3,1.3-1.3h12.4c0.7,0,1.3,0.6,1.3,1.3v-0.2
				C422.8,365.7,422.2,365.1,421.5,365.1z"/>
			<path class="st6" d="M401.1,281.6h-12.4c-0.7,0-1.3,0.6-1.3,1.3v0.2c0-0.7,0.6-1.3,1.3-1.3h12.4c0.7,0,1.3,0.6,1.3,1.3v-0.2
				C402.4,282.2,401.8,281.6,401.1,281.6z"/>
			<path class="st6" d="M401.1,309.7h-12.4c-0.7,0-1.3,0.6-1.3,1.3v0.2c0-0.7,0.6-1.3,1.3-1.3h12.4c0.7,0,1.3,0.6,1.3,1.3V311
				C402.4,310.3,401.8,309.7,401.1,309.7z"/>
			<path class="st6" d="M401.1,292.7h-12.4c-0.7,0-1.3,0.6-1.3,1.3v0.2c0-0.7,0.6-1.3,1.3-1.3h12.4c0.7,0,1.3,0.6,1.3,1.3V294
				C402.4,293.3,401.8,292.7,401.1,292.7z"/>
			<path class="st6" d="M401.1,328.1h-12.4c-0.7,0-1.3,0.6-1.3,1.3v0.2c0-0.7,0.6-1.3,1.3-1.3h12.4c0.7,0,1.3,0.6,1.3,1.3v-0.2
				C402.4,328.7,401.8,328.1,401.1,328.1z"/>
			<path class="st6" d="M401.1,365.1h-12.4c-0.7,0-1.3,0.6-1.3,1.3v0.2c0-0.7,0.6-1.3,1.3-1.3h12.4c0.7,0,1.3,0.6,1.3,1.3v-0.2
				C402.4,365.7,401.8,365.1,401.1,365.1z"/>
			<path class="st6" d="M401.1,346.6h-12.4c-0.7,0-1.3,0.6-1.3,1.3v0.2c0-0.7,0.6-1.3,1.3-1.3h12.4c0.7,0,1.3,0.6,1.3,1.3v-0.2
				C402.4,347.2,401.8,346.6,401.1,346.6z"/>
			<path class="st6" d="M441.9,281.6h-12.4c-0.7,0-1.3,0.6-1.3,1.3v0.2c0-0.7,0.6-1.3,1.3-1.3h12.4c0.7,0,1.3,0.6,1.3,1.3v-0.2
				C443.2,282.2,442.6,281.6,441.9,281.6z"/>
			<path class="st6" d="M421.5,346.6h-12.4c-0.7,0-1.3,0.6-1.3,1.3v0.2c0-0.7,0.6-1.3,1.3-1.3h12.4c0.7,0,1.3,0.6,1.3,1.3v-0.2
				C422.8,347.2,422.2,346.6,421.5,346.6z"/>
			<path class="st6" d="M380.7,281.6h-12.4c-0.7,0-1.3,0.6-1.3,1.3v0.2c0-0.7,0.6-1.3,1.3-1.3h12.4c0.7,0,1.3,0.6,1.3,1.3v-0.2
				C382,282.2,381.5,281.6,380.7,281.6z"/>
			<path class="st6" d="M441.9,309.7h-32.8c-0.7,0-1.3,0.6-1.3,1.3v0.2c0-0.7,0.6-1.3,1.3-1.3h32.8c0.7,0,1.3,0.6,1.3,1.3V311
				C443.2,310.3,442.6,309.7,441.9,309.7z"/>
			<path class="st6" d="M441.9,292.7h-32.8c-0.7,0-1.3,0.6-1.3,1.3v0.2c0-0.7,0.6-1.3,1.3-1.3h32.8c0.7,0,1.3,0.6,1.3,1.3V294
				C443.2,293.3,442.6,292.7,441.9,292.7z"/>
			<path class="st6" d="M441.9,346.6h-12.4c-0.7,0-1.3,0.6-1.3,1.3v0.2c0-0.7,0.6-1.3,1.3-1.3h12.4c0.7,0,1.3,0.6,1.3,1.3v-0.2
				C443.2,347.2,442.6,346.6,441.9,346.6z"/>
			<path class="st6" d="M421.5,328.1h-12.4c-0.7,0-1.3,0.6-1.3,1.3v0.2c0-0.7,0.6-1.3,1.3-1.3h12.4c0.7,0,1.3,0.6,1.3,1.3v-0.2
				C422.8,328.7,422.2,328.1,421.5,328.1z"/>
			<path class="st6" d="M441.9,365.1h-12.4c-0.7,0-1.3,0.6-1.3,1.3v0.2c0-0.7,0.6-1.3,1.3-1.3h12.4c0.7,0,1.3,0.6,1.3,1.3v-0.2
				C443.2,365.7,442.6,365.1,441.9,365.1z"/>
			<path class="st6" d="M278.8,346.6h-12.4c-0.7,0-1.3,0.6-1.3,1.3v0.2c0-0.7,0.6-1.3,1.3-1.3h12.4c0.7,0,1.3,0.6,1.3,1.3v-0.2
				C280.1,347.2,279.5,346.6,278.8,346.6z"/>
			<path class="st6" d="M258.4,281.6H246c-0.7,0-1.3,0.6-1.3,1.3v0.2c0-0.7,0.6-1.3,1.3-1.3h12.4c0.7,0,1.3,0.6,1.3,1.3v-0.2
				C259.7,282.2,259.1,281.6,258.4,281.6z"/>
			<path class="st6" d="M278.8,365.1h-12.4c-0.7,0-1.3,0.6-1.3,1.3v0.2c0-0.7,0.6-1.3,1.3-1.3h12.4c0.7,0,1.3,0.6,1.3,1.3v-0.2
				C280.1,365.7,279.5,365.1,278.8,365.1z"/>
			<path class="st6" d="M258.4,365.1H246c-0.7,0-1.3,0.6-1.3,1.3v0.2c0-0.7,0.6-1.3,1.3-1.3h12.4c0.7,0,1.3,0.6,1.3,1.3v-0.2
				C259.7,365.7,259.1,365.1,258.4,365.1z"/>
			<path class="st6" d="M258.4,292.7H246c-0.7,0-1.3,0.6-1.3,1.3v0.2c0-0.7,0.6-1.3,1.3-1.3h12.4c0.7,0,1.3,0.6,1.3,1.3V294
				C259.7,293.3,259.1,292.7,258.4,292.7z"/>
			<path class="st6" d="M258.4,346.6H246c-0.7,0-1.3,0.6-1.3,1.3v0.2c0-0.7,0.6-1.3,1.3-1.3h12.4c0.7,0,1.3,0.6,1.3,1.3v-0.2
				C259.7,347.2,259.1,346.6,258.4,346.6z"/>
			<path class="st6" d="M258.4,309.7H246c-0.7,0-1.3,0.6-1.3,1.3v0.2c0-0.7,0.6-1.3,1.3-1.3h12.4c0.7,0,1.3,0.6,1.3,1.3V311
				C259.7,310.3,259.1,309.7,258.4,309.7z"/>
			<path class="st6" d="M258.4,328.1H246c-0.7,0-1.3,0.6-1.3,1.3v0.2c0-0.7,0.6-1.3,1.3-1.3h12.4c0.7,0,1.3,0.6,1.3,1.3v-0.2
				C259.7,328.7,259.1,328.1,258.4,328.1z"/>
			<path class="st6" d="M380.7,328.1h-12.4c-0.7,0-1.3,0.6-1.3,1.3v0.2c0-0.7,0.6-1.3,1.3-1.3h12.4c0.7,0,1.3,0.6,1.3,1.3v-0.2
				C382,328.7,381.5,328.1,380.7,328.1z"/>
			<path class="st6" d="M380.7,346.6h-12.4c-0.7,0-1.3,0.6-1.3,1.3v0.2c0-0.7,0.6-1.3,1.3-1.3h12.4c0.7,0,1.3,0.6,1.3,1.3v-0.2
				C382,347.2,381.5,346.6,380.7,346.6z"/>
			<path class="st6" d="M380.7,292.7h-12.4c-0.7,0-1.3,0.6-1.3,1.3v0.2c0-0.7,0.6-1.3,1.3-1.3h12.4c0.7,0,1.3,0.6,1.3,1.3V294
				C382,293.3,381.5,292.7,380.7,292.7z"/>
			<path class="st6" d="M380.7,309.7h-12.4c-0.7,0-1.3,0.6-1.3,1.3v0.2c0-0.7,0.6-1.3,1.3-1.3h12.4c0.7,0,1.3,0.6,1.3,1.3V311
				C382,310.3,381.5,309.7,380.7,309.7z"/>
			<path class="st6" d="M278.8,281.6h-12.4c-0.7,0-1.3,0.6-1.3,1.3v0.2c0-0.7,0.6-1.3,1.3-1.3h12.4c0.7,0,1.3,0.6,1.3,1.3v-0.2
				C280.1,282.2,279.5,281.6,278.8,281.6z"/>
			<path class="st6" d="M278.8,309.7h-12.4c-0.7,0-1.3,0.6-1.3,1.3v0.2c0-0.7,0.6-1.3,1.3-1.3h12.4c0.7,0,1.3,0.6,1.3,1.3V311
				C280.1,310.3,279.5,309.7,278.8,309.7z"/>
			<path class="st6" d="M278.8,292.7h-12.4c-0.7,0-1.3,0.6-1.3,1.3v0.2c0-0.7,0.6-1.3,1.3-1.3h12.4c0.7,0,1.3,0.6,1.3,1.3V294
				C280.1,293.3,279.5,292.7,278.8,292.7z"/>
			<path class="st6" d="M278.8,328.1h-12.4c-0.7,0-1.3,0.6-1.3,1.3v0.2c0-0.7,0.6-1.3,1.3-1.3h12.4c0.7,0,1.3,0.6,1.3,1.3v-0.2
				C280.1,328.7,279.5,328.1,278.8,328.1z"/>
		</g>
		<g>
			<g>
				<path class="st3" d="M356.3,436.3h-67.4c-2.7,0-4.8-2.2-4.8-4.8V396c0-2.7,2.2-4.8,4.8-4.8h67.4c2.7,0,4.8,2.2,4.8,4.8v35.5
					C361.1,434.2,359,436.3,356.3,436.3z"/>
				<path class="st4" d="M356.3,435.9h-67.4c-2.7,0-4.8-2.2-4.8-4.8V396c0-2.7,2.2-4.8,4.8-4.8h67.4c2.7,0,4.8,2.2,4.8,4.8v35.1
					C361.1,433.8,359,435.9,356.3,435.9z"/>
			</g>
			<rect x="284.1" y="427.7" class="st3" width="77.1" height="0.9"/>
			<rect x="284.1" y="427.5" class="st7" width="77.1" height="0.9"/>
		</g>
	</g>
	<g>
		<path class="st8" d="M469.3,250.1H176.5c-2.8,0-5.3-1.7-6.2-4.4l-26.5-68.2c-0.8-5.5,3.3-9.3,7.9-9.3h342.5c5.4,0,8.8,5,7.8,10.1
			l-26.4,67.4C474.6,248.3,472.1,250.1,469.3,250.1z"/>
	</g>
	<path class="st9" d="M151.7,168.4h342.5c4.7,0,7.9,3.8,8,8.2c0-4.4-3.2-8.4-8-8.4H151.7c-4.3,0-8.2,3.3-8,8.3
		C143.6,171.6,147.4,168.4,151.7,168.4z"/>
	<g>
		<path class="st10" d="M470.4,253.1h-295c-2.8,0-5.3-1.8-6.3-4.4l-25-69.1c-1.6-4.3,1.6-8.9,6.3-8.9h345c4.6,0,7.8,4.6,6.3,8.9
			l-25,69.1C475.7,251.4,473.2,253.1,470.4,253.1z"/>
	</g>
	<g>
		<path class="st5" d="M495.4,170.6h-345c-4.6,0-7.8,4.6-6.3,8.9l23.9,66.1h309.7l23.9-66.1C503.2,175.2,500,170.6,495.4,170.6z"/>
	</g>
	<g>
		<polygon class="st11" points="151.2,178.7 173.9,243.4 470.6,243.4 494.5,178.7 		"/>
	</g>
	<g>
		<path class="st9" d="M484.2,223.6l17.5-44.6c1.4-4.3-1.8-8.7-6.3-8.7h-345c-4,0-7,3.5-6.6,7.3l16.7,43l-15.1-41.8
			c-0.6-1.7-0.4-3.5,0.7-4.9c1-1.5,2.6-2.3,4.4-2.3h345c1.8,0,3.4,0.8,4.4,2.3c1,1.5,1.3,3.2,0.7,4.9L484.2,223.6z"/>
	</g>
	<g>
		<path class="st12" d="M495.4,171.9c1.8,0,3.4,0.8,4.4,2.3c1,1.5,1.3,3.2,0.7,4.9l-25,69.1c-0.8,2.1-2.8,3.5-5,3.5h-295
			c-2.3,0-4.3-1.4-5-3.5l-25-69.1c-0.6-1.7-0.4-3.5,0.7-4.9c1-1.5,2.6-2.3,4.4-2.3H495.4 M495.4,170.6h-345c-4.6,0-7.8,4.6-6.3,8.9
			l25,69.1c1,2.6,3.5,4.4,6.3,4.4h295c2.8,0,5.3-1.8,6.3-4.4l25-69.1C503.2,175.2,500,170.6,495.4,170.6L495.4,170.6z"/>
	</g>
	<ellipse class="st13" cx="453.3" cy="265.2" rx="6.6" ry="6.8"/>
	<circle class="st14" cx="453.3" cy="265.1" r="6.6"/>
	<circle class="st1" cx="453.3" cy="265.1" r="5.5"/>
	<path class="st13" d="M453.3,270.4c-3,0-5.4-2.4-5.5-5.4c0,0,0,0,0,0.1c0,3,2.4,5.5,5.5,5.5c3,0,5.5-2.4,5.5-5.5c0,0,0,0,0-0.1
		C458.7,268,456.3,270.4,453.3,270.4z"/>
	<g>
		<polygon class="st15" points="157.3,196.1 488.1,196.1 494.5,178.7 151.2,178.7 		"/>
	</g>
	<g>
		<polygon class="st16" points="494.3,179.3 494.5,178.7 151.2,178.7 151.4,179.3 		"/>
	</g>
	<g>
		<g>
			<g>
				
					<ellipse transform="matrix(0.5914 -0.8064 0.8064 0.5914 -84.496 208.8871)" class="st17" cx="163.9" cy="187.8" rx="3.9" ry="5.4"/>
			</g>
			<g>
				
					<ellipse transform="matrix(0.5611 -0.8277 0.8277 0.5611 -83.4723 218.0038)" class="st18" cx="163.8" cy="187.7" rx="3.9" ry="5.3"/>
			</g>
			<g>
				
					<ellipse transform="matrix(0.5611 -0.8277 0.8277 0.5611 -83.4723 218.0038)" class="st19" cx="163.8" cy="187.7" rx="2.7" ry="3.7"/>
			</g>
			<g>
				<path class="st20" d="M162.9,184.8c1.8,0,3.7,1.3,4.3,3c0,0,0,0,0-0.1c-0.5-1.7-2.5-3.1-4.3-3.1s-2.9,1.4-2.3,3.1c0,0,0,0,0,0.1
					C160.1,186.1,161.1,184.8,162.9,184.8z"/>
			</g>
		</g>
		<g>
			<g>
				
					<ellipse transform="matrix(0.5914 -0.8064 0.8064 0.5914 -79.575 218.5989)" class="st17" cx="175.9" cy="187.8" rx="3.9" ry="5.4"/>
			</g>
			<g>
				
					<ellipse transform="matrix(0.5611 -0.8277 0.8277 0.5611 -78.1865 227.9729)" class="st18" cx="175.9" cy="187.7" rx="3.9" ry="5.3"/>
			</g>
			<g>
				
					<ellipse transform="matrix(0.5611 -0.8277 0.8277 0.5611 -78.1865 227.9729)" class="st21" cx="175.9" cy="187.7" rx="2.7" ry="3.7"/>
			</g>
			<g>
				<path class="st22" d="M174.9,184.8c1.8,0,3.7,1.3,4.3,3c0,0,0,0,0-0.1c-0.5-1.7-2.5-3.1-4.3-3.1s-2.9,1.4-2.3,3.1c0,0,0,0,0,0.1
					C172.1,186.1,173.1,184.8,174.9,184.8z"/>
			</g>
		</g>
		<g>
			<g>
				
					<ellipse transform="matrix(0.5914 -0.8064 0.8064 0.5914 -74.6541 228.3106)" class="st17" cx="188" cy="187.8" rx="3.9" ry="5.4"/>
			</g>
			<g>
				
					<ellipse transform="matrix(0.5611 -0.8277 0.8277 0.5611 -72.9007 237.9419)" class="st18" cx="187.9" cy="187.7" rx="3.9" ry="5.3"/>
			</g>
			<g>
				
					<ellipse transform="matrix(0.5611 -0.8277 0.8277 0.5611 -72.9007 237.9419)" class="st23" cx="187.9" cy="187.7" rx="2.7" ry="3.7"/>
			</g>
			<g>
				<path class="st24" d="M187,184.8c1.8,0,3.7,1.3,4.3,3c0,0,0,0,0-0.1c-0.5-1.7-2.5-3.1-4.3-3.1s-2.9,1.4-2.3,3.1c0,0,0,0,0,0.1
					C184.2,186.1,185.2,184.8,187,184.8z"/>
			</g>
		</g>
	</g>
	<g>
		<line class="st25" x1="327.5" y1="211.9" x2="327.5" y2="205.7"/>
	</g>
	<g>
		<path class="st25" d="M307.4,207.6h-135c-1.1,0-1.9-0.9-1.9-1.9s0.9-1.9,1.9-1.9h135c1.1,0,1.9,0.9,1.9,1.9
			S308.5,207.6,307.4,207.6z"/>
	</g>
	<g>
		<path class="st26" d="M333.7,207.6h-15.8c-1.1,0-1.9-0.9-1.9-1.9s0.9-1.9,1.9-1.9h15.8c1.1,0,1.9,0.9,1.9,1.9
			S334.8,207.6,333.7,207.6z"/>
	</g>
	<g>
		<path class="st25" d="M387.4,207.6h-43.8c-1.1,0-1.9-0.9-1.9-1.9s0.9-1.9,1.9-1.9h43.8c1.1,0,1.9,0.9,1.9,1.9
			S388.5,207.6,387.4,207.6z"/>
	</g>
	<g>
		<path class="st27" d="M415.3,207.6h-8.8c-1.1,0-1.9-0.9-1.9-1.9s0.9-1.9,1.9-1.9h8.8c1.1,0,1.9,0.9,1.9,1.9
			S416.4,207.6,415.3,207.6z"/>
	</g>
	<g>
		<path class="st27" d="M430.4,207.6h-8.8c-1.1,0-1.9-0.9-1.9-1.9s0.9-1.9,1.9-1.9h8.8c1.1,0,1.9,0.9,1.9,1.9
			S431.5,207.6,430.4,207.6z"/>
	</g>
	<g>
		<path class="st26" d="M198.6,216.7h-22.8c-1.1,0-1.9-0.9-1.9-1.9s0.9-1.9,1.9-1.9h22.8c1.1,0,1.9,0.9,1.9,1.9
			S199.7,216.7,198.6,216.7z"/>
	</g>
	<g>
		<path class="st25" d="M257.2,216.7h-45.8c-1.1,0-1.9-0.9-1.9-1.9s0.9-1.9,1.9-1.9h45.8c1.1,0,1.9,0.9,1.9,1.9
			S258.3,216.7,257.2,216.7z"/>
	</g>
	<g>
		<path class="st26" d="M346.6,216.7h-76.4c-1.1,0-1.9-0.9-1.9-1.9s0.9-1.9,1.9-1.9h76.4c1.1,0,1.9,0.9,1.9,1.9
			S347.7,216.7,346.6,216.7z"/>
	</g>
	<g>
		<path class="st28" d="M228.3,227.9h-49.1c-1.1,0-1.9-0.9-1.9-1.9s0.9-1.9,1.9-1.9h49.1c1.1,0,1.9,0.9,1.9,1.9
			S229.4,227.9,228.3,227.9z"/>
	</g>
	<g>
		<path class="st28" d="M244.7,227.9h-5.4c-1.1,0-1.9-0.9-1.9-1.9s0.9-1.9,1.9-1.9h5.4c1.1,0,1.9,0.9,1.9,1.9
			S245.7,227.9,244.7,227.9z"/>
	</g>
	<g>
		<path class="st28" d="M265.1,227.9h-7.9c-1.1,0-1.9-0.9-1.9-1.9s0.9-1.9,1.9-1.9h7.9c1.1,0,1.9,0.9,1.9,1.9
			S266.1,227.9,265.1,227.9z"/>
	</g>
	<g>
		<path class="st28" d="M285.5,227.9h-11.3c-1.1,0-1.9-0.9-1.9-1.9s0.9-1.9,1.9-1.9h11.3c1.1,0,1.9,0.9,1.9,1.9
			S286.5,227.9,285.5,227.9z"/>
	</g>
	<g>
		<path class="st28" d="M370.3,216.7h-14.5c-1.1,0-1.9-0.9-1.9-1.9s0.9-1.9,1.9-1.9h14.5c1.1,0,1.9,0.9,1.9,1.9
			S371.4,216.7,370.3,216.7z"/>
	</g>
	<g>
		<path class="st28" d="M410.9,216.7h-31.5c-1.1,0-1.9-0.9-1.9-1.9s0.9-1.9,1.9-1.9h31.5c1.1,0,1.9,0.9,1.9,1.9
			S412,216.7,410.9,216.7z"/>
	</g>
	<g>
		<path class="st29" d="M217.1,238H182c-1.1,0-1.9-0.9-1.9-1.9s0.9-1.9,1.9-1.9h35.1c1.1,0,1.9,0.9,1.9,1.9S218.2,238,217.1,238z"/>
	</g>
	<g>
		<path class="st29" d="M466.1,230h-78.7c-1.1,0-1.9-0.9-1.9-1.9c0-1.1,0.9-1.9,1.9-1.9h78.7c1.1,0,1.9,0.9,1.9,1.9
			C468.1,229.2,467.2,230,466.1,230z"/>
	</g>
	<g>
		<path class="st29" d="M461.8,238h-12.3c-1.1,0-1.9-0.9-1.9-1.9s0.9-1.9,1.9-1.9h12.3c1.1,0,1.9,0.9,1.9,1.9S462.9,238,461.8,238z"
			/>
	</g>
	<g>
		<path class="st29" d="M443.2,238h-10.7c-1.1,0-1.9-0.9-1.9-1.9s0.9-1.9,1.9-1.9h10.7c1.1,0,1.9,0.9,1.9,1.9S444.3,238,443.2,238z"
			/>
	</g>
	<g class="st30">
		<polygon class="st11" points="373.6,178.7 256.2,178.7 191.5,243.4 308.9,243.4 		"/>
		<polygon class="st11" points="459,178.7 410.4,178.7 345.7,243.4 394.3,243.4 		"/>
		<polygon class="st11" points="493.9,180.4 494.5,178.7 482.1,178.7 417.4,243.4 430.8,243.4 		"/>
	</g>
</g>
<g>
	<path class="st31" d="M571.6,447.5h-74.7V338.2h74.7c2.7,0,4.9,2.2,4.9,4.9v99.4C576.5,445.3,574.3,447.5,571.6,447.5z"/>
	<path class="st32" d="M570.1,338.2h-0.3c3.5,0,6.4,2.9,6.4,6.4v96.5c0,3.5-2.9,6.4-6.4,6.4h0.3c3.5,0,6.4-2.9,6.4-6.4v-96.5
		C576.5,341.1,573.6,338.2,570.1,338.2z"/>
	<g>
		<rect x="496.9" y="338.2" class="st33" width="13.5" height="109.3"/>
		
			<rect x="510.3" y="338.2" transform="matrix(-1 -1.224647e-16 1.224647e-16 -1 1022.1469 785.7472)" class="st34" width="1.5" height="109.3"/>
		<rect x="554.9" y="338.2" class="st35" width="9.1" height="109.3"/>
		<rect x="556" y="337.2" class="st36" width="9.1" height="111.3"/>
		<rect x="556" y="337.2" class="st9" width="0.7" height="111.3"/>
		<g>
			<rect x="557.5" y="337.2" class="st9" width="0.1" height="111.3"/>
			<rect x="557.6" y="337.2" class="st37" width="0.2" height="111.3"/>
		</g>
		<g>
			<rect x="558.8" y="337.2" class="st9" width="0.1" height="111.3"/>
			<rect x="558.9" y="337.2" class="st37" width="0.2" height="111.3"/>
		</g>
		<g>
			<rect x="560.1" y="337.2" class="st9" width="0.1" height="111.3"/>
			<rect x="560.2" y="337.2" class="st37" width="0.2" height="111.3"/>
		</g>
		<g>
			<rect x="561.4" y="337.2" class="st9" width="0.1" height="111.3"/>
			<rect x="561.5" y="337.2" class="st37" width="0.2" height="111.3"/>
		</g>
		<g>
			<rect x="562.6" y="337.2" class="st9" width="0.1" height="111.3"/>
			<rect x="562.7" y="337.2" class="st37" width="0.2" height="111.3"/>
		</g>
		<g>
			<rect x="563.9" y="337.2" class="st9" width="0.1" height="111.3"/>
			<rect x="564" y="337.2" class="st37" width="0.2" height="111.3"/>
		</g>
		<rect x="515.4" y="430.6" class="st38" width="22.4" height="11.5"/>
		<rect x="515.4" y="426.5" class="st38" width="22.4" height="2.7"/>
		<rect x="515.4" y="422.3" class="st39" width="11.2" height="2.7"/>
	</g>
</g>
<g>
	<circle class="st40" cx="99" cy="353.6" r="47.8"/>
	<path class="st41" d="M137.5,348.6c-3.5-17.9-19.2-31.4-38.2-31.4c-21.5,0-38.9,17.4-38.9,38.9c0,21.5,17.4,38.9,38.9,38.9
		c18.9,0,34.6-13.4,38.1-31.3h5c1.2,0,2.4-0.3,3.5-0.9c0.6-3,0.9-6.1,0.9-9.2c0-1.3-0.1-2.5-0.2-3.8c-1.2-0.8-2.7-1.3-4.2-1.3H137.5
		z"/>
	<path class="st42" d="M99,306.6c26.3,0,47.6,21.2,47.8,47.4c0-0.1,0-0.3,0-0.4c0-26.4-21.4-47.8-47.8-47.8s-47.8,21.4-47.8,47.8
		c0,0.1,0,0.3,0,0.4C51.5,327.8,72.8,306.6,99,306.6z"/>
	<g>
		<path class="st9" d="M144.2,361.3H129c-3.2,0-5.8-2.6-5.8-5.8V352c0-3.2,2.6-5.8,5.8-5.8h15.2c3.2,0,5.8,2.6,5.8,5.8v3.5
			C150,358.6,147.4,361.3,144.2,361.3z"/>
		<circle class="st43" cx="99.3" cy="353.6" r="38.9"/>
		<path class="st9" d="M99.3,315.1c21.4,0,38.8,17.3,38.9,38.7c0-0.1,0-0.1,0-0.2c0-21.5-17.4-38.9-38.9-38.9
			c-21.5,0-38.9,17.4-38.9,38.9c0,0.1,0,0.1,0,0.2C60.5,332.4,77.9,315.1,99.3,315.1z"/>
		<ellipse class="st9" cx="99.3" cy="353.9" rx="34.1" ry="34.4"/>
		<circle class="st44" cx="99.3" cy="353.6" r="34.1"/>
		<circle class="st44" cx="99.3" cy="353.6" r="31.5"/>
		<circle class="st45" cx="99.3" cy="353.6" r="30.8"/>
		<path class="st46" d="M99.3,323.1c17,0,30.7,13.7,30.8,30.7c0-0.1,0-0.1,0-0.2c0-17-13.8-30.8-30.8-30.8s-30.8,13.8-30.8,30.8
			c0,0.1,0,0.1,0,0.2C68.6,336.8,82.4,323.1,99.3,323.1z"/>
		<circle class="st47" cx="99.3" cy="353.6" r="23.9"/>
		<path class="st48" d="M99.3,329.9c13.2,0,23.8,10.6,23.9,23.8c0,0,0-0.1,0-0.1c0-13.2-10.7-23.9-23.9-23.9s-23.9,10.7-23.9,23.9
			c0,0,0,0.1,0,0.1C75.5,340.6,86.2,329.9,99.3,329.9z"/>
		<circle class="st49" cx="99.3" cy="353.6" r="14.3"/>
		<path class="st50" d="M99.3,339.4c7.9,0,14.3,6.4,14.3,14.3c0,0,0-0.1,0-0.1c0-7.9-6.4-14.3-14.3-14.3c-7.9,0-14.3,6.4-14.3,14.3
			c0,0,0,0.1,0,0.1C85,345.8,91.4,339.4,99.3,339.4z"/>
		<circle class="st51" cx="99.3" cy="353.6" r="5.8"/>
		<path class="st52" d="M99.3,348c3.2,0,5.8,2.6,5.8,5.7c0,0,0-0.1,0-0.1c0-3.2-2.6-5.8-5.8-5.8s-5.8,2.6-5.8,5.8c0,0,0,0.1,0,0.1
			C93.6,350.6,96.1,348,99.3,348z"/>
	</g>
	<linearGradient id="SVGID_1_" gradientUnits="userSpaceOnUse" x1="97.7686" y1="350.6853" x2="61.6513" y2="314.568">
		<stop  offset="0" style="stop-color:#EBF1FB;stop-opacity:0"/>
		<stop  offset="0.9979" style="stop-color:#EBF1FB"/>
	</linearGradient>
	<circle class="st53" cx="91" cy="343.9" r="15.5"/>
	<linearGradient id="SVGID_2_" gradientUnits="userSpaceOnUse" x1="89.4167" y1="361.1405" x2="72.6291" y2="344.3529">
		<stop  offset="0" style="stop-color:#EBF1FB;stop-opacity:0"/>
		<stop  offset="0.9979" style="stop-color:#EBF1FB"/>
	</linearGradient>
	<circle class="st54" cx="86.3" cy="358" r="7.2"/>
	<linearGradient id="SVGID_3_" gradientUnits="userSpaceOnUse" x1="122.3875" y1="365.9382" x2="111.8891" y2="355.4399">
		<stop  offset="0" style="stop-color:#EBF1FB;stop-opacity:0"/>
		<stop  offset="0.9979" style="stop-color:#EBF1FB"/>
	</linearGradient>
	<circle class="st55" cx="120.4" cy="364" r="4.5"/>
</g>
<g>
	<path class="st56" d="M573.3,474.9h-9.7c-2.8,0-5-2.3-5-5v-3c0-2.8,2.3-5,5-5h9.7c2.8,0,5,2.3,5,5v3
		C578.3,472.7,576.1,474.9,573.3,474.9z"/>
	<path class="st57" d="M568.8,470.6l-1.4,4.3l-68.3,0.2c-1.2,0-2.2-1-2.2-2.2l0,0c0-1.2,1-2.2,2.2-2.2L568.8,470.6z"/>
	<path class="st58" d="M568.8,466.3l0,4.3l-69.6,0.2c-1.2,0-2.2-1-2.2-2.2l0,0c0-1.2,1-2.2,2.2-2.2L568.8,466.3z"/>
	<path class="st59" d="M567.5,462l1.4,4.3l-69.6,0.2c-1.2,0-2.2-1-2.2-2.2l0,0c0-1.2,1-2.2,2.2-2.2L567.5,462z"/>
	<g>
		<g>
			<path class="st60" d="M494.5,462.4l-16.7,5.2c-1.1,0.3-1.1,1.9,0,2.2l16.8,5.2l3-6.3L494.5,462.4z"/>
			<path class="st61" d="M565.2,470.6l-1.4,4.3l-68.3,0.2c-1.2,0-2.2-1-2.2-2.2l0,0c0-1.2,1-2.2,2.2-2.2L565.2,470.6z"/>
			<path class="st62" d="M565.2,466.3l0,4.3l-69.6,0.2c-1.2,0-2.2-1-2.2-2.2l0,0c0-1.2,1-2.2,2.2-2.2L565.2,466.3z"/>
			<path class="st63" d="M563.8,462l1.4,4.3l-69.6,0.2c-1.2,0-2.2-1-2.2-2.2l0,0c0-1.2,1-2.2,2.2-2.2L563.8,462z"/>
			<path class="st64" d="M477.5,469.8l8.2,2.4c0.4-0.7,0.8-2.4,0.8-3.5c0-1.1-0.3-2.4-0.7-3.1l-8.3,2
				C476.3,467.9,476.3,469.5,477.5,469.8z"/>
			<path class="st65" d="M477.3,468.6c-0.2,0-0.2,0.3,0.1,0.3l8.9,0.7c0.1-0.3,0.1-0.7,0.1-0.9L477.3,468.6z"/>
			<path class="st66" d="M477.5,467.6c-0.1,0-0.1,0-0.2,0.1c0,0,0,0,0,0c-0.1,0-0.1,0.1-0.2,0.1c0,0,0,0,0,0
				c-0.1,0.1-0.2,0.2-0.2,0.2c0,0,0,0,0,0c0,0,0,0.1-0.1,0.1c0,0,0,0,0,0.1c0,0,0,0.1,0,0.1c0,0,0,0,0,0.1c0,0,0,0,0,0
				c0.2-0.2,0.4-0.3,0.7-0.4l8.8-1.4c-0.1-0.4-0.4-1.1-0.5-1.4L477.5,467.6z"/>
			<path class="st65" d="M493.4,473c0,1.2,1,2.2,2.2,2.2l68.3-0.2l0.7-2.2L493.4,473z"/>
			<path class="st65" d="M495.6,470.8l69.6-0.2l0-0.2l-70.6,0.2C494.9,470.7,495.2,470.8,495.6,470.8z"/>
			<path class="st65" d="M495.5,466.5l69.6-0.2l-0.1-0.2l-70.5,0.2C494.9,466.4,495.2,466.5,495.5,466.5z"/>
		</g>
		<path class="st65" d="M493.4,464.3c0,1.2,1,2.2,2.2,2.2l0.2,0c-1.2,0-2.2-1-2.2-2.2c0-1.2,1-2.2,2.2-2.2l-0.2,0
			C494.3,462.1,493.4,463.1,493.4,464.3z"/>
		<path class="st65" d="M493.4,468.6c0,1.2,1,2.2,2.2,2.2l0.2,0c-1.2,0-2.2-1-2.2-2.2c0-1.2,1-2.2,2.2-2.2l-0.2,0
			C494.3,466.5,493.4,467.4,493.4,468.6z"/>
		<path class="st65" d="M493.4,473c0,1.2,1,2.2,2.2,2.2l0.2,0c-1.2,0-2.2-1-2.2-2.2c0-1.2,1-2.2,2.2-2.2l-0.2,0
			C494.4,470.8,493.4,471.8,493.4,473z"/>
	</g>
</g>
<g>
	<g>
		<path class="st67" d="M354,189.6H96.5c-2.8,0-5.1-2.3-5.1-5.1V20.9c0-2.8,2.3-5.1,5.1-5.1H354c2.8,0,5.1,2.3,5.1,5.1v163.6
			C359,187.3,356.8,189.6,354,189.6z"/>
		<path class="st68" d="M352.5,188.7H98c-3.6,0-6.6-2.9-6.6-6.6v0.9c0,3.6,2.9,6.6,6.6,6.6h254.4c3.6,0,6.6-2.9,6.6-6.6v-0.9
			C359,185.7,356.1,188.7,352.5,188.7z"/>
		<path class="st69" d="M351.4,14.3H99.1c-4.2,0-7.6,3.4-7.6,7.6v1.6c0-4.2,3.4-7.6,7.6-7.6h252.3c4.2,0,7.6,3.4,7.6,7.6v-1.6
			C359,17.7,355.6,14.3,351.4,14.3z"/>
		<path class="st69" d="M351.4,15.9H99.1c-4.2,0-7.6,3.4-7.6,7.6v20.4H359V23.5C359,19.3,355.6,15.9,351.4,15.9z"/>
		<path class="st70" d="M351.4,15.9H99.1c-4.2,0-7.6,3.4-7.6,7.6v0.3c0-4.2,3.4-7.6,7.6-7.6h252.3c4.2,0,7.6,3.4,7.6,7.6v-0.3
			C359,19.3,355.6,15.9,351.4,15.9z"/>
		<rect x="91.5" y="42.8" class="st70" width="267.6" height="1.1"/>
		<linearGradient id="SVGID_4_" gradientUnits="userSpaceOnUse" x1="102.3061" y1="116.377" x2="348.8025" y2="116.377">
			<stop  offset="0" style="stop-color:#292456"/>
			<stop  offset="1" style="stop-color:#402681"/>
		</linearGradient>
		<path class="st71" d="M344.6,180.4H106.5c-2.3,0-4.2-1.9-4.2-4.2V56.5c0-2.3,1.9-4.2,4.2-4.2h238.1c2.3,0,4.2,1.9,4.2,4.2v119.7
			C348.8,178.6,346.9,180.4,344.6,180.4z"/>
		<circle class="st72" cx="106.5" cy="29.9" r="7.6"/>
		<path class="st70" d="M106.5,37.2c-4.1,0-7.5-3.3-7.6-7.4c0,0,0,0.1,0,0.1c0,4.2,3.4,7.6,7.6,7.6c4.2,0,7.6-3.4,7.6-7.6
			c0,0,0-0.1,0-0.1C114,33.9,110.6,37.2,106.5,37.2z"/>
		<circle class="st69" cx="106.5" cy="29.9" r="5.9"/>
		<circle class="st73" cx="106.5" cy="29.9" r="4.8"/>
		<path class="st74" d="M106.5,25.2c2.6,0,4.8,2.1,4.8,4.7c0,0,0,0,0-0.1c0-2.6-2.1-4.8-4.8-4.8c-2.6,0-4.8,2.1-4.8,4.8
			c0,0,0,0,0,0.1C101.7,27.3,103.9,25.2,106.5,25.2z"/>
		<circle class="st75" cx="106.5" cy="29.9" r="2.9"/>
		<path class="st74" d="M106.5,27.1c1.6,0,2.8,1.3,2.9,2.8c0,0,0,0,0-0.1c0-1.6-1.3-2.9-2.9-2.9c-1.6,0-2.9,1.3-2.9,2.9
			c0,0,0,0,0,0.1C103.6,28.4,104.9,27.1,106.5,27.1z"/>
		<circle class="st72" cx="128.4" cy="29.9" r="7.6"/>
		<path class="st70" d="M128.4,37.2c-4.1,0-7.5-3.3-7.6-7.4c0,0,0,0.1,0,0.1c0,4.2,3.4,7.6,7.6,7.6s7.6-3.4,7.6-7.6c0,0,0-0.1,0-0.1
			C135.9,33.9,132.6,37.2,128.4,37.2z"/>
		<circle class="st69" cx="128.4" cy="29.9" r="5.9"/>
		<circle class="st76" cx="128.4" cy="29.9" r="4.8"/>
		<path class="st77" d="M128.4,25.2c2.6,0,4.8,2.1,4.8,4.7c0,0,0,0,0-0.1c0-2.6-2.1-4.8-4.8-4.8s-4.8,2.1-4.8,4.8c0,0,0,0,0,0.1
			C123.7,27.3,125.8,25.2,128.4,25.2z"/>
		<circle class="st78" cx="128.4" cy="29.9" r="2.9"/>
		<path class="st79" d="M128.4,27.1c1.6,0,2.8,1.3,2.9,2.8c0,0,0,0,0-0.1c0-1.6-1.3-2.9-2.9-2.9s-2.9,1.3-2.9,2.9c0,0,0,0,0,0.1
			C125.6,28.4,126.9,27.1,128.4,27.1z"/>
		<circle class="st72" cx="150.4" cy="29.9" r="7.6"/>
		<path class="st70" d="M150.4,37.2c-4.1,0-7.5-3.3-7.6-7.4c0,0,0,0.1,0,0.1c0,4.2,3.4,7.6,7.6,7.6s7.6-3.4,7.6-7.6c0,0,0-0.1,0-0.1
			C157.8,33.9,154.5,37.2,150.4,37.2z"/>
		<circle class="st69" cx="150.4" cy="29.9" r="5.9"/>
		<circle class="st80" cx="150.4" cy="29.9" r="4.8"/>
		<path class="st81" d="M150.4,25.2c2.6,0,4.8,2.1,4.8,4.7c0,0,0,0,0-0.1c0-2.6-2.1-4.8-4.8-4.8s-4.8,2.1-4.8,4.8c0,0,0,0,0,0.1
			C145.6,27.3,147.7,25.2,150.4,25.2z"/>
		<circle class="st82" cx="150.4" cy="29.9" r="2.9"/>
		<path class="st81" d="M150.4,27.1c1.6,0,2.8,1.3,2.9,2.8c0,0,0,0,0-0.1c0-1.6-1.3-2.9-2.9-2.9s-2.9,1.3-2.9,2.9c0,0,0,0,0,0.1
			C147.5,28.4,148.8,27.1,150.4,27.1z"/>
		<polyline class="st83" points="115.3,59.8 109.4,65.7 115.3,71.6 		"/>
		<polyline class="st83" points="130.1,59.8 136,65.7 130.1,71.6 		"/>
		<line class="st83" x1="120.2" y1="72.6" x2="124.9" y2="59.8"/>
		<circle class="st84" cx="142.3" cy="72.7" r="1.7"/>
		<circle class="st84" cx="149.1" cy="72.7" r="1.7"/>
		<circle class="st84" cx="156" cy="72.7" r="1.7"/>
		<line class="st83" x1="112.4" y1="84.7" x2="289.4" y2="84.7"/>
		<line class="st83" x1="300.1" y1="84.7" x2="313.8" y2="84.7"/>
		<line class="st83" x1="321.4" y1="84.7" x2="338.9" y2="84.7"/>
		<line class="st85" x1="112.4" y1="98.6" x2="223.1" y2="98.6"/>
		<line class="st85" x1="239.6" y1="98.6" x2="259.5" y2="98.6"/>
		<line class="st85" x1="259.5" y1="106.6" x2="205.6" y2="106.6"/>
		<line class="st85" x1="198.2" y1="106.6" x2="187.3" y2="106.6"/>
		<line class="st85" x1="178.7" y1="106.6" x2="167.8" y2="106.6"/>
		<line class="st85" x1="159.2" y1="106.6" x2="148.3" y2="106.6"/>
		<line class="st85" x1="139.7" y1="106.6" x2="128.8" y2="106.6"/>
		<line class="st86" x1="296.8" y1="116.4" x2="128.8" y2="116.4"/>
		<line class="st85" x1="116.3" y1="106.6" x2="112.4" y2="106.6"/>
		<line class="st85" x1="116.3" y1="116.4" x2="112.4" y2="116.4"/>
		<line class="st85" x1="116.3" y1="126.1" x2="112.4" y2="126.1"/>
		<line class="st85" x1="116.3" y1="135.9" x2="112.4" y2="135.9"/>
		<line class="st86" x1="307" y1="116.4" x2="330.2" y2="116.4"/>
		<line class="st86" x1="128.4" y1="126.1" x2="174.9" y2="126.1"/>
		<line class="st86" x1="128.4" y1="136.1" x2="174.9" y2="136.1"/>
		<line class="st86" x1="128.4" y1="146.1" x2="174.9" y2="146.1"/>
		<line class="st86" x1="128.4" y1="156.1" x2="174.9" y2="156.1"/>
		<line class="st87" x1="205.6" y1="156.1" x2="300.1" y2="156.1"/>
		<line class="st87" x1="261.6" y1="146.1" x2="300.1" y2="146.1"/>
		<line class="st87" x1="284.9" y1="135.9" x2="300.1" y2="135.9"/>
	</g>
	<g>
		<g>
			<path class="st67" d="M507.1,288H385.3c-2.9,0-5.2-2.3-5.2-5.2V87.5c0-2.9,2.3-5.2,5.2-5.2h121.8c2.9,0,5.2,2.3,5.2,5.2v195.3
				C512.3,285.7,509.9,288,507.1,288z"/>
			<path class="st88" d="M505.7,287.3h-119c-3.6,0-6.6-2.9-6.6-6.6v0.8c0,3.6,2.9,6.6,6.6,6.6h119c3.6,0,6.6-2.9,6.6-6.6v-0.8
				C512.3,284.3,509.3,287.3,505.7,287.3z"/>
			<path class="st69" d="M507.2,81.3h-122c-2.8,0-5.1,2.3-5.1,5.1v1.1c0-2.8,2.3-5.1,5.1-5.1h122c2.8,0,5.1,2.3,5.1,5.1v-1.1
				C512.3,83.5,510,81.3,507.2,81.3z"/>
			<path class="st69" d="M507.2,82.3h-122c-2.8,0-5.1,2.3-5.1,5.1V101h132.2V87.4C512.3,84.6,510,82.3,507.2,82.3z"/>
			<path class="st70" d="M507.2,82.3h-122c-2.8,0-5.1,2.3-5.1,5.1v0.2c0-2.8,2.3-5.1,5.1-5.1h122c2.8,0,5.1,2.3,5.1,5.1v-0.2
				C512.3,84.6,510,82.3,507.2,82.3z"/>
			<rect x="380.1" y="100.2" class="st70" width="132.2" height="0.8"/>
			<linearGradient id="SVGID_5_" gradientUnits="userSpaceOnUse" x1="387.3059" y1="194.2564" x2="505.4492" y2="194.2564">
				<stop  offset="0" style="stop-color:#292456"/>
				<stop  offset="1" style="stop-color:#402681"/>
			</linearGradient>
			<path class="st89" d="M501.3,281.9H391.5c-2.3,0-4.2-1.9-4.2-4.2v-167c0-2.3,1.9-4.2,4.2-4.2h109.8c2.3,0,4.2,1.9,4.2,4.2v167
				C505.4,280.1,503.6,281.9,501.3,281.9z"/>
			<circle class="st72" cx="390.1" cy="91.7" r="5"/>
			<path class="st70" d="M390.1,96.5c-2.7,0-5-2.2-5-4.9c0,0,0,0.1,0,0.1c0,2.8,2.3,5,5,5s5-2.3,5-5c0,0,0-0.1,0-0.1
				C395.1,94.3,392.8,96.5,390.1,96.5z"/>
			<circle class="st69" cx="390.1" cy="91.7" r="3.9"/>
			<circle class="st73" cx="390.1" cy="91.7" r="3.2"/>
			<path class="st74" d="M390.1,88.6c1.7,0,3.2,1.4,3.2,3.1c0,0,0,0,0,0C393.3,89.9,391.8,88.5,390.1,88.6c-1.8-0.1-3.2,1.3-3.2,3.1
				c0,0,0,0,0,0C386.9,90,388.3,88.6,390.1,88.6z"/>
			<circle class="st75" cx="390.1" cy="91.7" r="1.9"/>
			<path class="st74" d="M390.1,89.8c1,0,1.9,0.8,1.9,1.9c0,0,0,0,0-0.1c0-1.1-0.9-1.9-1.9-1.9c-1.1,0-1.9,0.9-1.9,1.9
				c0,0,0,0,0,0.1C388.2,90.7,389,89.8,390.1,89.8z"/>
			<circle class="st72" cx="404.7" cy="91.7" r="5"/>
			<path class="st70" d="M404.7,96.5c-2.7,0-5-2.2-5-4.9c0,0,0,0.1,0,0.1c0,2.8,2.3,5,5,5s5-2.3,5-5c0,0,0-0.1,0-0.1
				C409.7,94.3,407.4,96.5,404.7,96.5z"/>
			<circle class="st69" cx="404.7" cy="91.7" r="3.9"/>
			<circle class="st76" cx="404.7" cy="91.7" r="3.2"/>
			<path class="st77" d="M404.7,88.6c1.7,0,3.2,1.4,3.2,3.1c0,0,0,0,0,0C407.9,89.9,406.4,88.5,404.7,88.6c-1.8-0.1-3.2,1.3-3.2,3.1
				c0,0,0,0,0,0C401.5,90,402.9,88.6,404.7,88.6z"/>
			<circle class="st78" cx="404.7" cy="91.7" r="1.9"/>
			<path class="st79" d="M404.7,89.8c1,0,1.9,0.8,1.9,1.9c0,0,0,0,0-0.1c0-1.1-0.9-1.9-1.9-1.9c-1.1,0-1.9,0.9-1.9,1.9
				c0,0,0,0,0,0.1C402.8,90.7,403.6,89.8,404.7,89.8z"/>
			<circle class="st72" cx="419.3" cy="91.7" r="5"/>
			<path class="st70" d="M419.3,96.5c-2.7,0-5-2.2-5-4.9c0,0,0,0.1,0,0.1c0,2.8,2.3,5,5,5s5-2.3,5-5c0,0,0-0.1,0-0.1
				C424.2,94.3,422,96.5,419.3,96.5z"/>
			<circle class="st69" cx="419.3" cy="91.7" r="3.9"/>
			<circle class="st80" cx="419.3" cy="91.7" r="3.2"/>
			<path class="st81" d="M419.3,88.6c1.7,0,3.2,1.4,3.2,3.1c0,0,0,0,0,0C422.5,89.9,421,88.5,419.3,88.6c-1.8-0.1-3.2,1.3-3.2,3.1
				c0,0,0,0,0,0C416.1,90,417.5,88.6,419.3,88.6z"/>
			<circle class="st82" cx="419.3" cy="91.7" r="1.9"/>
			<path class="st81" d="M419.3,89.8c1,0,1.9,0.8,1.9,1.9c0,0,0,0,0-0.1c0-1.1-0.9-1.9-1.9-1.9c-1.1,0-1.9,0.9-1.9,1.9
				c0,0,0,0,0,0.1C417.4,90.7,418.2,89.8,419.3,89.8z"/>
			<g>
				<path class="st84" d="M475.9,129.1H394c-0.6,0-1-0.4-1-1c0-0.6,0.4-1,1-1h81.9c0.6,0,1,0.4,1,1
					C476.9,128.7,476.5,129.1,475.9,129.1z"/>
			</g>
			<g>
				<path class="st84" d="M489.1,129.1h-6.1c-0.6,0-1-0.4-1-1c0-0.6,0.4-1,1-1h6.1c0.6,0,1,0.4,1,1
					C490.1,128.7,489.7,129.1,489.1,129.1z"/>
			</g>
			<g>
				<path class="st84" d="M498.8,129.1h-4.6c-0.6,0-1-0.4-1-1c0-0.6,0.4-1,1-1h4.6c0.6,0,1,0.4,1,1
					C499.8,128.7,499.4,129.1,498.8,129.1z"/>
			</g>
			<g>
				<path class="st90" d="M440,138.4h-46c-0.6,0-1-0.4-1-1c0-0.6,0.4-1,1-1h46c0.6,0,1,0.4,1,1C441,137.9,440.6,138.4,440,138.4z"/>
			</g>
			<g>
				<path class="st90" d="M456,138.4h-13.2c-0.6,0-1-0.4-1-1c0-0.6,0.4-1,1-1H456c0.6,0,1,0.4,1,1C457,137.9,456.6,138.4,456,138.4z
					"/>
			</g>
			<g>
				<path class="st90" d="M456,143.7h-8.2c-0.6,0-1-0.4-1-1c0-0.6,0.4-1,1-1h8.2c0.6,0,1,0.4,1,1C457,143.2,456.6,143.7,456,143.7z"
					/>
			</g>
			<g>
				<path class="st90" d="M443.8,143.7h-0.9c-0.6,0-1-0.4-1-1c0-0.6,0.4-1,1-1h0.9c0.6,0,1,0.4,1,1
					C444.8,143.2,444.4,143.7,443.8,143.7z"/>
			</g>
			<g>
				<path class="st90" d="M438.1,143.7h-7.2c-0.6,0-1-0.4-1-1c0-0.6,0.4-1,1-1h7.2c0.6,0,1,0.4,1,1
					C439.1,143.2,438.6,143.7,438.1,143.7z"/>
			</g>
			<g>
				<path class="st90" d="M425.1,143.7h-7.2c-0.6,0-1-0.4-1-1c0-0.6,0.4-1,1-1h7.2c0.6,0,1,0.4,1,1
					C426.1,143.2,425.7,143.7,425.1,143.7z"/>
			</g>
			<g>
				<path class="st90" d="M412.2,143.7h-7.2c-0.6,0-1-0.4-1-1c0-0.6,0.4-1,1-1h7.2c0.6,0,1,0.4,1,1
					C413.2,143.2,412.7,143.7,412.2,143.7z"/>
			</g>
			<g>
				<path class="st91" d="M480.8,150.2h-75.9c-0.6,0-1-0.4-1-1c0-0.6,0.4-1,1-1h75.9c0.6,0,1,0.4,1,1
					C481.8,149.7,481.4,150.2,480.8,150.2z"/>
			</g>
			<g>
				<path class="st90" d="M396.6,143.7H394c-0.6,0-1-0.4-1-1c0-0.6,0.4-1,1-1h2.6c0.6,0,1,0.4,1,1
					C397.6,143.2,397.2,143.7,396.6,143.7z"/>
			</g>
			<g>
				<path class="st90" d="M396.6,150.2H394c-0.6,0-1-0.4-1-1c0-0.6,0.4-1,1-1h2.6c0.6,0,1,0.4,1,1
					C397.6,149.7,397.2,150.2,396.6,150.2z"/>
			</g>
			<g>
				<path class="st90" d="M396.6,156.6H394c-0.6,0-1-0.4-1-1c0-0.6,0.4-1,1-1h2.6c0.6,0,1,0.4,1,1
					C397.6,156.2,397.2,156.6,396.6,156.6z"/>
			</g>
			<g>
				<path class="st90" d="M396.6,163.1H394c-0.6,0-1-0.4-1-1c0-0.6,0.4-1,1-1h2.6c0.6,0,1,0.4,1,1
					C397.6,162.7,397.2,163.1,396.6,163.1z"/>
			</g>
			<g>
				<path class="st91" d="M497,150.2h-9.4c-0.6,0-1-0.4-1-1c0-0.6,0.4-1,1-1h9.4c0.6,0,1,0.4,1,1C498,149.7,497.6,150.2,497,150.2z"
					/>
			</g>
			<g>
				<path class="st91" d="M435.6,156.6h-30.9c-0.6,0-1-0.4-1-1c0-0.6,0.4-1,1-1h30.9c0.6,0,1,0.4,1,1
					C436.6,156.2,436.1,156.6,435.6,156.6z"/>
			</g>
			<g>
				<path class="st92" d="M483.1,176.6h-35.3c-0.6,0-1-0.4-1-1c0-0.6,0.4-1,1-1h35.3c0.6,0,1,0.4,1,1
					C484.1,176.1,483.6,176.6,483.1,176.6z"/>
			</g>
			<g>
				<path class="st92" d="M483.1,169.9h-25.6c-0.6,0-1-0.4-1-1c0-0.6,0.4-1,1-1h25.6c0.6,0,1,0.4,1,1
					C484.1,169.5,483.6,169.9,483.1,169.9z"/>
			</g>
			<g>
				<path class="st92" d="M483.1,163.1h-10.2c-0.6,0-1-0.4-1-1c0-0.6,0.4-1,1-1h10.2c0.6,0,1,0.4,1,1
					C484.1,162.7,483.6,163.1,483.1,163.1z"/>
			</g>
		</g>
		<g>
			<path class="st91" d="M430.9,120.1H394c-0.6,0-1-0.4-1-1c0-0.6,0.4-1,1-1h36.9c0.6,0,1,0.4,1,1
				C431.9,119.6,431.4,120.1,430.9,120.1z"/>
		</g>
		<g>
			<path class="st92" d="M454.8,192.3H394c-0.6,0-1-0.4-1-1c0-0.6,0.4-1,1-1h60.8c0.6,0,1,0.4,1,1
				C455.8,191.9,455.3,192.3,454.8,192.3z"/>
		</g>
		<g>
			<path class="st92" d="M454.8,200.3H394c-0.6,0-1-0.4-1-1s0.4-1,1-1h60.8c0.6,0,1,0.4,1,1S455.3,200.3,454.8,200.3z"/>
		</g>
		<g>
			<path class="st92" d="M454.8,208.3H394c-0.6,0-1-0.4-1-1c0-0.6,0.4-1,1-1h60.8c0.6,0,1,0.4,1,1
				C455.8,207.8,455.3,208.3,454.8,208.3z"/>
		</g>
		<g>
			<path class="st92" d="M454.8,256H394c-0.6,0-1-0.4-1-1c0-0.6,0.4-1,1-1h60.8c0.6,0,1,0.4,1,1C455.8,255.5,455.3,256,454.8,256z"
				/>
		</g>
		<g>
			<path class="st84" d="M467.8,183.1h-16.6c-0.6,0-1-0.4-1-1c0-0.6,0.4-1,1-1h16.6c0.6,0,1,0.4,1,1
				C468.8,182.6,468.3,183.1,467.8,183.1z"/>
		</g>
		<g>
			<path class="st84" d="M498.8,183.1h-22.9c-0.6,0-1-0.4-1-1c0-0.6,0.4-1,1-1h22.9c0.6,0,1,0.4,1,1
				C499.8,182.6,499.4,183.1,498.8,183.1z"/>
		</g>
		<g>
			<path class="st84" d="M498.8,192.3h-22.9c-0.6,0-1-0.4-1-1c0-0.6,0.4-1,1-1h22.9c0.6,0,1,0.4,1,1
				C499.8,191.9,499.4,192.3,498.8,192.3z"/>
		</g>
		<g>
			<path class="st84" d="M401.5,268.1H394c-0.6,0-1-0.4-1-1c0-0.6,0.4-1,1-1h7.5c0.6,0,1,0.4,1,1C402.5,267.7,402,268.1,401.5,268.1
				z"/>
		</g>
		<g>
			<path class="st84" d="M401.5,274.2H394c-0.6,0-1-0.4-1-1s0.4-1,1-1h7.5c0.6,0,1,0.4,1,1S402,274.2,401.5,274.2z"/>
		</g>
		<g>
			<path class="st84" d="M462.4,274.2H406c-0.6,0-1-0.4-1-1s0.4-1,1-1h56.4c0.6,0,1,0.4,1,1S462.9,274.2,462.4,274.2z"/>
		</g>
		<g>
			<path class="st84" d="M416.2,268.1h-7.5c-0.6,0-1-0.4-1-1c0-0.6,0.4-1,1-1h7.5c0.6,0,1,0.4,1,1
				C417.2,267.7,416.7,268.1,416.2,268.1z"/>
		</g>
		<g>
			<path class="st84" d="M430.9,268.1h-7.5c-0.6,0-1-0.4-1-1c0-0.6,0.4-1,1-1h7.5c0.6,0,1,0.4,1,1
				C431.9,267.7,431.4,268.1,430.9,268.1z"/>
		</g>
		<g>
			<path class="st84" d="M445.6,268.1h-7.5c-0.6,0-1-0.4-1-1c0-0.6,0.4-1,1-1h7.5c0.6,0,1,0.4,1,1
				C446.6,267.7,446.1,268.1,445.6,268.1z"/>
		</g>
		<g>
			<path class="st84" d="M460.2,268.1h-7.5c-0.6,0-1-0.4-1-1c0-0.6,0.4-1,1-1h7.5c0.6,0,1,0.4,1,1
				C461.2,267.7,460.8,268.1,460.2,268.1z"/>
		</g>
		<g>
			<path class="st84" d="M474.9,268.1h-7.5c-0.6,0-1-0.4-1-1c0-0.6,0.4-1,1-1h7.5c0.6,0,1,0.4,1,1
				C475.9,267.7,475.5,268.1,474.9,268.1z"/>
		</g>
		<g>
			<path class="st84" d="M486.6,268.1h-4.5c-0.6,0-1-0.4-1-1c0-0.6,0.4-1,1-1h4.5c0.6,0,1,0.4,1,1
				C487.6,267.7,487.2,268.1,486.6,268.1z"/>
		</g>
	</g>
	<g>
		<g>
			<path class="st67" d="M559.9,118h-95.3c-1.7,0-3.2-1.4-3.2-3.2V28.1c0-1.7,1.4-3.2,3.2-3.2h95.3c1.7,0,3.2,1.4,3.2,3.2v86.8
				C563,116.6,561.6,118,559.9,118z"/>
			<path class="st69" d="M559.2,24.1h-93.8c-2.1,0-3.9,1.7-3.9,3.9v0.8c0-2.1,1.7-3.9,3.9-3.9h93.8c2.1,0,3.9,1.7,3.9,3.9V28
				C563,25.8,561.3,24.1,559.2,24.1z"/>
			<path class="st69" d="M559.2,24.9h-93.8c-2.1,0-3.9,1.7-3.9,3.9v10.4H563V28.8C563,26.7,561.3,24.9,559.2,24.9z"/>
			<path class="st70" d="M559.2,24.9h-93.8c-2.1,0-3.9,1.7-3.9,3.9v0.1c0-2.1,1.7-3.9,3.9-3.9h93.8c2.1,0,3.9,1.7,3.9,3.9v-0.1
				C563,26.7,561.3,24.9,559.2,24.9z"/>
			<rect x="461.5" y="38.7" class="st70" width="101.6" height="0.6"/>
			<linearGradient id="SVGID_6_" gradientUnits="userSpaceOnUse" x1="467.0041" y1="78.4536" x2="557.8118" y2="78.4536">
				<stop  offset="0" style="stop-color:#292456"/>
				<stop  offset="1" style="stop-color:#402681"/>
			</linearGradient>
			<path class="st93" d="M555.4,113.4h-86c-1.3,0-2.4-1.1-2.4-2.4V46c0-1.3,1.1-2.4,2.4-2.4h86c1.3,0,2.4,1.1,2.4,2.4v65
				C557.8,112.3,556.7,113.4,555.4,113.4z"/>
			<circle class="st72" cx="469.1" cy="32.1" r="3.9"/>
			<path class="st70" d="M469.1,35.8c-2.1,0-3.8-1.7-3.9-3.8c0,0,0,0,0,0.1c0,2.1,1.7,3.9,3.9,3.9s3.9-1.7,3.9-3.9c0,0,0,0,0-0.1
				C473,34.1,471.3,35.8,469.1,35.8z"/>
			<circle class="st69" cx="469.1" cy="32.1" r="3"/>
			<circle class="st73" cx="469.1" cy="32.1" r="2.5"/>
			<path class="st74" d="M469.1,29.7c1.3,0,2.4,1.1,2.4,2.4c0,0,0,0,0,0C471.6,30.7,470.5,29.6,469.1,29.7c-1.4-0.1-2.5,1-2.5,2.4
				c0,0,0,0,0,0C466.7,30.8,467.8,29.7,469.1,29.7z"/>
			<circle class="st75" cx="469.1" cy="32.1" r="1.5"/>
			<path class="st74" d="M469.1,30.7c0.8,0,1.5,0.6,1.5,1.4c0,0,0,0,0,0C470.6,31.3,470,30.6,469.1,30.7c-0.8-0.1-1.5,0.6-1.5,1.4
				c0,0,0,0,0,0C467.7,31.3,468.3,30.7,469.1,30.7z"/>
			<circle class="st72" cx="480.4" cy="32.1" r="3.9"/>
			<path class="st70" d="M480.4,35.8c-2.1,0-3.8-1.7-3.9-3.8c0,0,0,0,0,0.1c0,2.1,1.7,3.9,3.9,3.9s3.9-1.7,3.9-3.9c0,0,0,0,0-0.1
				C484.2,34.1,482.5,35.8,480.4,35.8z"/>
			<circle class="st69" cx="480.4" cy="32.1" r="3"/>
			<circle class="st76" cx="480.4" cy="32.1" r="2.5"/>
			<path class="st77" d="M480.4,29.7c1.3,0,2.4,1.1,2.4,2.4c0,0,0,0,0,0C482.8,30.7,481.7,29.6,480.4,29.7c-1.4-0.1-2.5,1-2.5,2.4
				c0,0,0,0,0,0C477.9,30.8,479,29.7,480.4,29.7z"/>
			<circle class="st78" cx="480.4" cy="32.1" r="1.5"/>
			<path class="st79" d="M480.4,30.7c0.8,0,1.5,0.6,1.5,1.4c0,0,0,0,0,0C481.8,31.3,481.2,30.6,480.4,30.7c-0.8-0.1-1.5,0.6-1.5,1.4
				c0,0,0,0,0,0C478.9,31.3,479.6,30.7,480.4,30.7z"/>
			<circle class="st72" cx="491.6" cy="32.1" r="3.9"/>
			<path class="st70" d="M491.6,35.8c-2.1,0-3.8-1.7-3.9-3.8c0,0,0,0,0,0.1c0,2.1,1.7,3.9,3.9,3.9s3.9-1.7,3.9-3.9c0,0,0,0,0-0.1
				C495.4,34.1,493.7,35.8,491.6,35.8z"/>
			<circle class="st69" cx="491.6" cy="32.1" r="3"/>
			<circle class="st80" cx="491.6" cy="32.1" r="2.5"/>
			<path class="st81" d="M491.6,29.7c1.3,0,2.4,1.1,2.4,2.4c0,0,0,0,0,0C494,30.7,492.9,29.6,491.6,29.7c-1.4-0.1-2.5,1-2.5,2.4
				c0,0,0,0,0,0C489.1,30.8,490.2,29.7,491.6,29.7z"/>
			<circle class="st82" cx="491.6" cy="32.1" r="1.5"/>
			<path class="st81" d="M491.6,30.7c0.8,0,1.5,0.6,1.5,1.4c0,0,0,0,0,0C493,31.3,492.4,30.6,491.6,30.7c-0.8-0.1-1.5,0.6-1.5,1.4
				c0,0,0,0,0,0C490.1,31.3,490.8,30.7,491.6,30.7z"/>
			<g>
				<path class="st84" d="M535.1,60.9h-63c-0.4,0-0.8-0.3-0.8-0.8c0-0.4,0.3-0.8,0.8-0.8h63c0.4,0,0.8,0.3,0.8,0.8
					C535.9,60.5,535.5,60.9,535.1,60.9z"/>
			</g>
			<g>
				<path class="st84" d="M545.3,60.9h-4.7c-0.4,0-0.8-0.3-0.8-0.8c0-0.4,0.3-0.8,0.8-0.8h4.7c0.4,0,0.8,0.3,0.8,0.8
					C546.1,60.5,545.7,60.9,545.3,60.9z"/>
			</g>
			<g>
				<path class="st84" d="M552.7,60.9h-3.5c-0.4,0-0.8-0.3-0.8-0.8c0-0.4,0.3-0.8,0.8-0.8h3.5c0.4,0,0.8,0.3,0.8,0.8
					C553.5,60.5,553.2,60.9,552.7,60.9z"/>
			</g>
			<g>
				<path class="st90" d="M507.5,68h-35.4c-0.4,0-0.8-0.3-0.8-0.8c0-0.4,0.3-0.8,0.8-0.8h35.4c0.4,0,0.8,0.3,0.8,0.8
					C508.3,67.6,507.9,68,507.5,68z"/>
			</g>
			<g>
				<path class="st90" d="M519.8,68h-10.1c-0.4,0-0.8-0.3-0.8-0.8c0-0.4,0.3-0.8,0.8-0.8h10.1c0.4,0,0.8,0.3,0.8,0.8
					C520.6,67.6,520.2,68,519.8,68z"/>
			</g>
			<g>
				<path class="st90" d="M519.8,72.1h-6.3c-0.4,0-0.8-0.3-0.8-0.8c0-0.4,0.3-0.8,0.8-0.8h6.3c0.4,0,0.8,0.3,0.8,0.8
					C520.6,71.7,520.2,72.1,519.8,72.1z"/>
			</g>
			<g>
				<path class="st90" d="M510.4,72.1h-0.7c-0.4,0-0.8-0.3-0.8-0.8c0-0.4,0.3-0.8,0.8-0.8h0.7c0.4,0,0.8,0.3,0.8,0.8
					C511.2,71.7,510.9,72.1,510.4,72.1z"/>
			</g>
			<g>
				<path class="st90" d="M506,72.1h-5.6c-0.4,0-0.8-0.3-0.8-0.8c0-0.4,0.3-0.8,0.8-0.8h5.6c0.4,0,0.8,0.3,0.8,0.8
					C506.8,71.7,506.5,72.1,506,72.1z"/>
			</g>
			<g>
				<path class="st90" d="M496.1,72.1h-5.6c-0.4,0-0.8-0.3-0.8-0.8c0-0.4,0.3-0.8,0.8-0.8h5.6c0.4,0,0.8,0.3,0.8,0.8
					C496.8,71.7,496.5,72.1,496.1,72.1z"/>
			</g>
			<g>
				<path class="st90" d="M486.1,72.1h-5.6c-0.4,0-0.8-0.3-0.8-0.8c0-0.4,0.3-0.8,0.8-0.8h5.6c0.4,0,0.8,0.3,0.8,0.8
					C486.9,71.7,486.5,72.1,486.1,72.1z"/>
			</g>
			<g>
				<path class="st91" d="M538.9,77.1h-58.3c-0.4,0-0.8-0.3-0.8-0.8c0-0.4,0.3-0.8,0.8-0.8h58.3c0.4,0,0.8,0.3,0.8,0.8
					C539.7,76.7,539.3,77.1,538.9,77.1z"/>
			</g>
			<g>
				<path class="st90" d="M474.1,72.1h-2c-0.4,0-0.8-0.3-0.8-0.8c0-0.4,0.3-0.8,0.8-0.8h2c0.4,0,0.8,0.3,0.8,0.8
					C474.9,71.7,474.6,72.1,474.1,72.1z"/>
			</g>
			<g>
				<path class="st90" d="M474.1,77.1h-2c-0.4,0-0.8-0.3-0.8-0.8c0-0.4,0.3-0.8,0.8-0.8h2c0.4,0,0.8,0.3,0.8,0.8
					C474.9,76.7,474.6,77.1,474.1,77.1z"/>
			</g>
			<g>
				<path class="st90" d="M474.1,82h-2c-0.4,0-0.8-0.3-0.8-0.8s0.3-0.8,0.8-0.8h2c0.4,0,0.8,0.3,0.8,0.8S474.6,82,474.1,82z"/>
			</g>
			<g>
				<path class="st91" d="M551.3,77.1h-7.3c-0.4,0-0.8-0.3-0.8-0.8c0-0.4,0.3-0.8,0.8-0.8h7.3c0.4,0,0.8,0.3,0.8,0.8
					C552.1,76.7,551.8,77.1,551.3,77.1z"/>
			</g>
			<g>
				<path class="st91" d="M504.1,82h-23.8c-0.4,0-0.8-0.3-0.8-0.8s0.3-0.8,0.8-0.8h23.8c0.4,0,0.8,0.3,0.8,0.8S504.5,82,504.1,82z"
					/>
			</g>
			<g>
				<path class="st92" d="M540.6,88.5h-27.1c-0.4,0-0.8-0.3-0.8-0.8c0-0.4,0.3-0.8,0.8-0.8h27.1c0.4,0,0.8,0.3,0.8,0.8
					C541.4,88.2,541,88.5,540.6,88.5z"/>
			</g>
			<g>
				<path class="st92" d="M540.6,85.1h-7.8c-0.4,0-0.8-0.3-0.8-0.8c0-0.4,0.3-0.8,0.8-0.8h7.8c0.4,0,0.8,0.3,0.8,0.8
					C541.4,84.8,541,85.1,540.6,85.1z"/>
			</g>
		</g>
		<g>
			<path class="st91" d="M500.5,53.9h-28.3c-0.4,0-0.8-0.3-0.8-0.8c0-0.4,0.3-0.8,0.8-0.8h28.3c0.4,0,0.8,0.3,0.8,0.8
				C501.3,53.6,500.9,53.9,500.5,53.9z"/>
		</g>
		<g>
			<path class="st92" d="M518.9,102.5h-46.7c-0.4,0-0.8-0.3-0.8-0.8c0-0.4,0.3-0.8,0.8-0.8h46.7c0.4,0,0.8,0.3,0.8,0.8
				C519.6,102.1,519.3,102.5,518.9,102.5z"/>
		</g>
		<g>
			<path class="st84" d="M528.9,93.5h-12.8c-0.4,0-0.8-0.3-0.8-0.8s0.3-0.8,0.8-0.8h12.8c0.4,0,0.8,0.3,0.8,0.8
				S529.3,93.5,528.9,93.5z"/>
		</g>
		<g>
			<path class="st84" d="M552.7,93.5h-17.6c-0.4,0-0.8-0.3-0.8-0.8s0.3-0.8,0.8-0.8h17.6c0.4,0,0.8,0.3,0.8,0.8
				S553.2,93.5,552.7,93.5z"/>
		</g>
		<g>
			<path class="st84" d="M552.7,100.7h-17.6c-0.4,0-0.8-0.3-0.8-0.8c0-0.4,0.3-0.8,0.8-0.8h17.6c0.4,0,0.8,0.3,0.8,0.8
				C553.5,100.3,553.2,100.7,552.7,100.7z"/>
		</g>
		<g>
			<path class="st84" d="M477.9,107.4h-5.8c-0.4,0-0.8-0.3-0.8-0.8s0.3-0.8,0.8-0.8h5.8c0.4,0,0.8,0.3,0.8,0.8
				S478.3,107.4,477.9,107.4z"/>
		</g>
		<g>
			<path class="st84" d="M524.7,107.4h-43.4c-0.4,0-0.8-0.3-0.8-0.8s0.3-0.8,0.8-0.8h43.4c0.4,0,0.8,0.3,0.8,0.8
				S525.1,107.4,524.7,107.4z"/>
		</g>
	</g>
</g>
</svg>
