<svg xmlns="http://www.w3.org/2000/svg" xmlns:xlink="http://www.w3.org/1999/xlink" viewBox="0 0 253.14 137.26"><defs><style>.cls-1{fill:#e4ebf7;}.cls-2{fill:#fff;}.cls-3{fill:#abdaf7;}.cls-4{fill:#70b2dd;}.cls-5{fill:#f29c8b;}.cls-6{fill:url(#linear-gradient);}.cls-7{fill:#3150bc;}.cls-8{fill:#78aaf9;}.cls-9{fill:#feb19e;}.cls-10{fill:#525559;}.cls-11{fill:url(#linear-gradient-2);}.cls-12{fill:#ff856a;}.cls-13,.cls-16{fill:#1b3151;}.cls-14{fill:#23406d;}.cls-15{fill:#4e79b7;}.cls-16{opacity:0.49;}.cls-17{fill:url(#radial-gradient);}.cls-18{fill:url(#radial-gradient-2);}.cls-19{fill:url(#radial-gradient-3);}.cls-20{fill:url(#radial-gradient-4);}</style><linearGradient id="linear-gradient" x1="146.71" y1="125.89" x2="142.71" y2="71.56" gradientUnits="userSpaceOnUse"><stop offset="0" stop-color="#3855e1"/><stop offset="1" stop-color="#5c7ef7"/></linearGradient><linearGradient id="linear-gradient-2" x1="99.68" y1="40.56" x2="143.16" y2="40.56" gradientUnits="userSpaceOnUse"><stop offset="0" stop-color="#3f2323"/><stop offset="1" stop-color="#5e3434"/></linearGradient><radialGradient id="radial-gradient" cx="70.08" cy="96.4" r="16.49" gradientUnits="userSpaceOnUse"><stop offset="0" stop-color="#f7c759"/><stop offset="1" stop-color="#f79239"/></radialGradient><radialGradient id="radial-gradient-2" cx="50.3" cy="59.39" r="28.99" xlink:href="#radial-gradient"/><radialGradient id="radial-gradient-3" cx="167.87" cy="42.31" r="11.65" xlink:href="#radial-gradient"/><radialGradient id="radial-gradient-4" cx="162.9" cy="90.07" r="17.17" xlink:href="#radial-gradient"/></defs><title>Asset 3</title><g id="Layer_2" data-name="Layer 2"><g id="OBJECTS"><path class="cls-1" d="M252.29,114.23c-.08.33-.15.65-.24,1A54,54,0,0,1,244,132.12l-20.53-.06h-1.08l-110.76-.31h-1.29l-21.46-.06H87.49l-68.16-.19s-17.7-20.82,6-40.3c11.11-9.12,26-7.71,37.41-8.89.49-.06,1-.11,1.46-.18,12-1.57,19.48-6.92,12.63-33.17a35.28,35.28,0,0,1-1.1-10.81c0-.5.06-1,.11-1.5,2.27-24.36,29-45.39,59.76-32.94.56.22,1.12.46,1.68.71A73.21,73.21,0,0,1,158,18.69c5.81,5.54,10.87,10.55,15.36,15.1l1.51,1.54C196.49,57.41,204,68.1,215.5,74.38l.93.49A57,57,0,0,0,228,79.17a43.2,43.2,0,0,1,12.68,5.49l.87.6C250.88,91.83,255.09,102,252.29,114.23Z"/><path class="cls-1" d="M220.91,18.69c-18-13.66-41.29-10.45-36.6,0s25,37.36,39.33,32.65S232.82,27.74,220.91,18.69Z"/><path class="cls-2" d="M241.55,85.26c-15.26,12.25-29,18.42-41.08,18.42a33,33,0,0,1-8.75-1.16c-18.06-5-31.72-25.77-40.59-61.83-3.93-16-9.52-28-15.53-37,.56.22,1.12.46,1.68.71,5.73,8.91,11,20.64,14.82,36,8.78,35.69,22.2,56.25,39.88,61.11,13.67,3.75,30-1.93,48.7-16.9Z"/><path class="cls-2" d="M216.43,74.87q-6.9,6.7-13.35,6.72a12.35,12.35,0,0,1-2.89-.35c-12.89-3.12-21.57-26.54-26.83-47.45l1.51,1.54c5.26,20.19,13.62,42.05,25.56,44.94,4.74,1.14,9.79-.83,15.07-5.89Z"/><path class="cls-2" d="M111.63,131.75h-1.29c8.33-10.25,12.49-21.24,12.22-32.6-.5-21-16-38.93-31.13-47.37a51.08,51.08,0,0,1-15.7-13.64c0-.5.06-1,.11-1.5A50.21,50.21,0,0,0,91.92,50.91c15.38,8.58,31.13,26.81,31.64,48.22C123.77,108,121.36,119.47,111.63,131.75Z"/><path class="cls-2" d="M88.88,131.69H87.49c5.07-6,8.36-12.63,8.15-19.14-.28-8.64-6.51-15.9-18.51-21.57A87,87,0,0,1,62.74,82.3c.49-.06,1-.11,1.46-.18a85.58,85.58,0,0,0,13.36,7.94c12.37,5.85,18.79,13.4,19.08,22.44C96.86,119.26,93.67,125.85,88.88,131.69Z"/><path class="cls-2" d="M252.29,114.23c-.08.33-.15.65-.24,1-7.42-.62-13.7.83-18.77,4.35a29.3,29.3,0,0,0-9.81,12.5h-1.08a30.53,30.53,0,0,1,10.32-13.32C238,115.06,244.57,113.55,252.29,114.23Z"/><path class="cls-3" d="M50.55,68.28s-2,2.17-3,11.66S38.45,94.16,32,94.66h-.13l0-.12-.23-.9-1.65-6.06S27.89,71,49.82,68.35Z"/><path class="cls-3" d="M33.61,132.11S34,83.33,25.75,67.47,0,48.9,0,48.9s18.7,4.88,25.75,23.72,4.88,59.49,4.88,59.49Z"/><path class="cls-3" d="M30.9,122.9C4,122.74,3.66,92.9,3.66,91.25v-.06C9.9,100.51,32,99.71,30.9,122.9Z"/><path class="cls-4" d="M30.9,122.9C4,122.74,3.66,92.9,3.66,91.25c0,1.3,1.09,21.09,13.15,24.48C29.27,119.23,30.9,122.9,30.9,122.9Z"/><path class="cls-3" d="M56.51,109.62c-3.11,8.53,1.49,17.2-6.36,22.49H36.46S35.64,113,56.51,109.62Z"/><path class="cls-4" d="M56.51,109.62c-3.11,8.53,1.49,17.2-6.36,22.49H45C51.67,126.36,52.49,116,56.51,109.62Z"/><path class="cls-4" d="M50.55,68.28s-2,2.17-3,11.66S38.45,94.16,32,94.66l-.17-.11-.91-.65.68-.25c13.34-5,13.46-17.54,18.24-25.3Z"/><path class="cls-3" d="M29.92,81.21l-.09,0c-1.35.31-17.11,3.56-20.39-12.06C6.23,53.85.73,49.45.06,49l0,0C30.13,53.72,29.92,81.21,29.92,81.21Z"/><path class="cls-4" d="M29.92,81.21l-.09,0c-1.35.31-17.11,3.56-20.39-12.06C6.23,53.85.73,49.45.06,49,15,56.83,7.76,78.79,29.92,81.21Z"/><rect class="cls-4" x="12.87" y="132.11" width="239.6" height="5.15"/><path class="cls-2" d="M203.24,115.49s2.89-3.53,1.44-7.14c-.9-2.26-2.44-2.17-5.78-6.23s-6.23-14.19,4.34-12.56,13.55.18,11.65-2.62-8.32-7-5.83-12.47,12.07-3.61,21.37-2.8,6.24-3.25,11.93-.54,5.69,18.25-7.41,17.25-15.54-.29-15,4.51,2.8,13-5.69,9.9-6.16.93-4.61,4.27c2,4.27-2.89,8.43-2.89,8.43Z"/><path class="cls-2" d="M202.24,77.81c-2.76-.55-5.69-5-8-1.08-1.89,3.2,3.89,8,8.31,6C206,81.28,205.86,78.54,202.24,77.81Z"/><path class="cls-4" d="M214.89,130.12V128a6.38,6.38,0,0,0,6.11-4.6l.37-1.27a2.52,2.52,0,0,0-.41-2.22,2.49,2.49,0,0,0-2-1h-1.69v-2.17h1.69a4.7,4.7,0,0,1,4.52,6l-.36,1.26A8.57,8.57,0,0,1,214.89,130.12Z"/><path class="cls-3" d="M218.55,115.59l-.31,2.18-1.64,11.28a3.59,3.59,0,0,1-3.53,3.07H205a3.56,3.56,0,0,1-3.53-3.08l-1.59-11.27-.3-2.19a1.9,1.9,0,0,1,1.89-2.17h15.21A1.9,1.9,0,0,1,218.55,115.59Z"/><path class="cls-4" d="M218.55,115.59l-.31,2.18H199.87l-.3-2.19a1.9,1.9,0,0,1,1.89-2.17h15.21A1.9,1.9,0,0,1,218.55,115.59Z"/><path class="cls-5" d="M184.31,132.11s2.56-1.93,1.63-10.7-1.63-15-1.63-15l-19.18,2.1,2.17,17.55Z"/><path class="cls-6" d="M167.53,113l2.55,19.1H107.2S101,85.67,114.24,75c5.83-4.71,13.26-6.84,19.76-7.75h0a64.31,64.31,0,0,1,15.1-.32s1.57,0,4,.2c5.41.48,15.06,2,20.77,7.3,8.27,7.59,12.06,38.09,12.06,38.09S178.67,114.09,167.53,113Z"/><path class="cls-7" d="M167.53,113l-2.87-.41-8.95-23.31s.31,26.4-8,34.25-29.29,4.06-29.29,4.06l-2.93-38.31-6.29,19.61,4.16,23.21h56.74Z"/><path class="cls-8" d="M153.1,67.08c-.56,5.27-2.11,13-6.46,16.1-6.92,5-13.22,2.92-15.93-2.23s.55-12.6,1.42-13.21L134,67.2h0a64.31,64.31,0,0,1,15.1-.32S150.69,66.87,153.1,67.08Z"/><path class="cls-5" d="M107.2,132.11H98.07A9.26,9.26,0,0,1,89,121l3.83-18.84Z"/><path class="cls-9" d="M106.05,99.35s1.43-3.08,0-4.37a4.91,4.91,0,0,0-3.19-1.22s-.88-3.05-6.37-2.51-6,5.69-2.94,8.13Z"/><path class="cls-10" d="M102.52,96,96.4,79.71a1.4,1.4,0,0,0-1.68-.86h0a1.41,1.41,0,0,0-.94,1.89l6.51,15.73Z"/><path class="cls-11" d="M143.11,44.5s.54-9.28-1.83-12.2-4.9-1.83-4.9-1.83,0-4.47-5.74-5.76a19.07,19.07,0,0,0-17.14,4.34c-4.88,4.47-12.06,2.15-12.06,5.31s4.47,4.33,4.47,4.33-6.17-.42-6.23,2.29,4.4,7.45,10.43,7.31c0,0,1.36,8.88,10,8.61l13.15-4.54L142,47.75Z"/><path class="cls-9" d="M149.12,66.88s-1.94,17.33-11.21,16.17c-5.13-.63-5.46-5.16-5-8.1a14.19,14.19,0,0,1,.87-3.28l-4.61-6.42,13-13.91C144.2,57.91,146.43,63.53,149.12,66.88Z"/><path class="cls-12" d="M132.89,75a14.19,14.19,0,0,1,.87-3.28l-4.61-6.42,13-13.91C147.24,69.48,137.61,73.88,132.89,75Z"/><path class="cls-9" d="M114.24,49.17s9.37,20.72,19.16,20c8.22-.63,10.79-14.14,8.76-17.8,0,0,3.66.34,2.85-3.93s-4.81-8.54-5.56,0c0,0-4.79,1.58-6.32-8.72,0,0-4.7,7.68-8.22,8.59s-2.53-2.62-2.53-2.62S120.21,48.09,114.24,49.17Z"/><path class="cls-13" d="M139.42,132.11H104.64a2.8,2.8,0,0,1-2.61-1.77l-1.13-2.87-9.54-24.28A2.81,2.81,0,0,1,94,99.35h34.38a2.81,2.81,0,0,1,2.6,1.75L142,128.24A2.8,2.8,0,0,1,139.42,132.11Z"/><path class="cls-14" d="M137,132.11H104.64a2.8,2.8,0,0,1-2.61-1.77l-1.13-2.87-9.54-24.28A2.81,2.81,0,0,1,94,99.35H125.9a2.51,2.51,0,0,1,.82.13,2.78,2.78,0,0,1,1.78,1.62l11.07,27.14A2.81,2.81,0,0,1,137,132.11Z"/><path class="cls-15" d="M117.45,114.2c.6,2.09,0,4.1-1.39,4.49s-3-1-3.56-3.08,0-4.1,1.4-4.49S116.86,112.11,117.45,114.2Z"/><path class="cls-16" d="M139.42,132.11H104.64a2.8,2.8,0,0,1-2.61-1.77l-1.13-2.87c17.17-1.79,23.67-19.4,25.82-28l0-.13h1.59a2.81,2.81,0,0,1,2.6,1.75L142,128.24A2.8,2.8,0,0,1,139.42,132.11Z"/><path class="cls-9" d="M184.31,132.11s-3.93-15-43.23-22.63c0,0-3-6.91-9.22-7.32l.95,4.34a47.28,47.28,0,0,1-13.35.61c-6.44-.81-1.76,5.76,2.58,9s5.21,5.29,11.86,3.86,8.19-1.69,8.19-1.69,8.47,8.94,17.83,13.82Z"/><path class="cls-17" d="M85.24,90.1a8.65,8.65,0,0,0-6.14,4.43c-2.35,4.06-4.34,6.5-8.22,5.42s-3.35-9.31,2.8-11.65S85.24,90.1,85.24,90.1Z"/><path class="cls-18" d="M87.32,78.8s-6.23-8.48-16.26-5.41-19.43,4-24.94-5.42-.18-13.56,4.7-12.92S60,64.44,67.17,64.53,85.78,70.11,87.32,78.8Z"/><path class="cls-19" d="M159.69,59.11s-2.62-13.19,7-17.62,11.56,7.23,4.51,8.81S160.32,55.41,159.69,59.11Z"/><path class="cls-20" d="M135.21,96.7s2.73-3.8,10.62.45,15.94,7.5,21.54,1.08,1.72-13.89-4.07-12.18-5.51,6-15.36,5.14S135.21,96.7,135.21,96.7Z"/><circle class="cls-4" cx="74.27" cy="22.61" r="15.77" transform="translate(35.2 89.7) rotate(-76.72)"/><circle class="cls-3" cx="74.27" cy="22.61" r="11.6"/><path class="cls-4" d="M80.8,22.09H75.08V14.36a1.1,1.1,0,1,0-2.2,0v9.75H80.8a1,1,0,1,0,0-2Z"/></g></g></svg>